solid OpenSCAD_Model
  facet normal -0.707107 0.707107 0
    outer loop
      vertex 60 20 0.36
      vertex 59.8303 19.8303 0.599999
      vertex 60.1697 20.1697 0.599999
    endloop
  endfacet
  facet normal -0 -1 0
    outer loop
      vertex 1.14441e-07 80 0.599999
      vertex 0 80 0.599999
      vertex 0 80 0.36
    endloop
  endfacet
  facet normal -0.500007 -0.500007 0.707097
    outer loop
      vertex 20.3394 60 0.599999
      vertex 60 20 0.36
      vertex 60.1697 20.1697 0.599999
    endloop
  endfacet
  facet normal -0.500007 -0.500007 0.707097
    outer loop
      vertex 60 20 0.36
      vertex 20.3394 60 0.599999
      vertex 20 60 0.36
    endloop
  endfacet
  facet normal -0.500007 -0.500007 0.707096
    outer loop
      vertex 0.33941 80 0.599999
      vertex 20 60 0.36
      vertex 20 60.3394 0.599999
    endloop
  endfacet
  facet normal -0.5 -0.5 0.707107
    outer loop
      vertex 20 60 0.36
      vertex 0.33941 80 0.599999
      vertex 0 80 0.36
    endloop
  endfacet
  facet normal 0.500007 0.500007 0.707097
    outer loop
      vertex 0 80 0.36
      vertex 0 79.6606 0.599999
      vertex 14.2303 65.4303 0.599999
    endloop
  endfacet
  facet normal 0.500007 0.500007 0.707097
    outer loop
      vertex 20 59.6606 0.599999
      vertex 60 20 0.36
      vertex 20 60 0.36
    endloop
  endfacet
  facet normal 0.500007 0.500007 0.707097
    outer loop
      vertex 60 20 0.36
      vertex 20 59.6606 0.599999
      vertex 59.8303 19.8303 0.599999
    endloop
  endfacet
  facet normal 0.500007 0.500007 0.707097
    outer loop
      vertex 20 60 0.36
      vertex 14.2303 65.4303 0.599999
      vertex 19.6606 60 0.599999
    endloop
  endfacet
  facet normal 0.500007 0.500007 0.707097
    outer loop
      vertex 14.2303 65.4303 0.599999
      vertex 20 60 0.36
      vertex 0 80 0.36
    endloop
  endfacet
  facet normal -0.707107 -0.707107 0
    outer loop
      vertex 40.1697 79.8303 0.599999
      vertex 40 80 0.599999
      vertex 40 80 0.36
    endloop
  endfacet
  facet normal -0.500007 0.500007 0.707097
    outer loop
      vertex 40 80 0.36
      vertex 20.3394 60 0.599999
      vertex 40.1697 79.8303 0.599999
    endloop
  endfacet
  facet normal -0.500007 0.500007 0.707097
    outer loop
      vertex 20.3394 60 0.599999
      vertex 40 80 0.36
      vertex 20 60 0.36
    endloop
  endfacet
  facet normal -0.500007 0.500007 0.707097
    outer loop
      vertex 20 60 0.36
      vertex 9.76968 49.4303 0.599999
      vertex 20 59.6606 0.599999
    endloop
  endfacet
  facet normal -0.500022 0.500022 0.707076
    outer loop
      vertex 9.76968 49.4303 0.599999
      vertex 20 60 0.36
      vertex 0 40 0.36
    endloop
  endfacet
  facet normal -0.500004 0.500003 0.707102
    outer loop
      vertex 9.76968 49.4303 0.599999
      vertex 0 40 0.36
      vertex 0.169705 39.8303 0.599999
    endloop
  endfacet
  facet normal 0.500007 -0.500007 0.707097
    outer loop
      vertex 20 60.3394 0.599999
      vertex 40 80 0.36
      vertex 39.6606 80 0.599999
    endloop
  endfacet
  facet normal 0.500007 -0.500007 0.707097
    outer loop
      vertex 40 80 0.36
      vertex 20 60.3394 0.599999
      vertex 20 60 0.36
    endloop
  endfacet
  facet normal 0.500007 -0.500008 0.707096
    outer loop
      vertex 9.43027 49.7697 0.599999
      vertex 20 60 0.36
      vertex 19.6606 60 0.599999
    endloop
  endfacet
  facet normal 0.499985 -0.499985 0.707128
    outer loop
      vertex 20 60 0.36
      vertex 9.43027 49.7697 0.599999
      vertex 0 40 0.36
    endloop
  endfacet
  facet normal 0.707096 0.707117 0
    outer loop
      vertex 0.169705 39.8303 0.599999
      vertex 0 40 0.36
      vertex 0 40 0.599999
    endloop
  endfacet
  facet normal 0.500008 -0.500007 0.707096
    outer loop
      vertex 0 40.3394 0.599999
      vertex 0 40 0.36
      vertex 9.43027 49.7697 0.599999
    endloop
  endfacet
  facet normal -0.707117 0.707096 0
    outer loop
      vertex 40 0 0.36
      vertex 40 0 0.599999
      vertex 40.1697 0.169705 0.599999
    endloop
  endfacet
  facet normal 0.499993 0.499993 0.707117
    outer loop
      vertex 20 20 0.36
      vertex 35.0303 4.63028 0.599999
      vertex 40 0 0.36
    endloop
  endfacet
  facet normal 0.500008 0.500007 0.707097
    outer loop
      vertex 35.0303 4.63028 0.599999
      vertex 20 20 0.36
      vertex 19.8303 19.8303 0.599999
    endloop
  endfacet
  facet normal -0.500003 -0.500004 0.707102
    outer loop
      vertex 40.1697 0.169705 0.599999
      vertex 35.3697 4.96969 0.599999
      vertex 40 0 0.36
    endloop
  endfacet
  facet normal 0.500007 0.500009 0.707096
    outer loop
      vertex 40 0 0.36
      vertex 35.0303 4.63028 0.599999
      vertex 39.6606 0 0.599999
    endloop
  endfacet
  facet normal 0.707107 -0.707107 0
    outer loop
      vertex 20.1697 20.1697 0.599999
      vertex 19.8303 19.8303 0.599999
      vertex 20 20 0.36
    endloop
  endfacet
  facet normal -0.500007 -0.500007 0.707097
    outer loop
      vertex 20 20 0.36
      vertex 35.3697 4.96969 0.599999
      vertex 20.1697 20.1697 0.599999
    endloop
  endfacet
  facet normal -0.500015 -0.500015 0.707086
    outer loop
      vertex 35.3697 4.96969 0.599999
      vertex 20 20 0.36
      vertex 40 0 0.36
    endloop
  endfacet
  facet normal -0.707107 0.707107 0
    outer loop
      vertex 80 40 0.36
      vertex 79.8303 39.8303 0.599999
      vertex 80 40 0.599999
    endloop
  endfacet
  facet normal 0.707107 -0.707107 0
    outer loop
      vertex 60.1697 60.1697 0.599999
      vertex 59.8303 59.8303 0.599999
      vertex 60 60 0.36
    endloop
  endfacet
  facet normal -0.500007 -0.500007 0.707097
    outer loop
      vertex 60 60 0.36
      vertex 80 40.3394 0.599999
      vertex 60.1697 60.1697 0.599999
    endloop
  endfacet
  facet normal -0.500007 -0.500007 0.707097
    outer loop
      vertex 80 40.3394 0.599999
      vertex 60 60 0.36
      vertex 80 40 0.36
    endloop
  endfacet
  facet normal 0.500007 0.500007 0.707097
    outer loop
      vertex 60 60 0.36
      vertex 79.8303 39.8303 0.599999
      vertex 80 40 0.36
    endloop
  endfacet
  facet normal 0.500007 0.500007 0.707097
    outer loop
      vertex 79.8303 39.8303 0.599999
      vertex 60 60 0.36
      vertex 59.8303 59.8303 0.599999
    endloop
  endfacet
  facet normal -0.707107 0 -0.707107
    outer loop
      vertex 20.24 20.24 0
      vertex 20 60 0.24
      vertex 20.24 59.76 0
    endloop
  endfacet
  facet normal -0.707107 -0 -0.707107
    outer loop
      vertex 20 60 0.24
      vertex 20.24 20.24 0
      vertex 20 20 0.24
    endloop
  endfacet
  facet normal 0 -1 0
    outer loop
      vertex 20 60 0
      vertex 20 60 0.24
      vertex 19.76 60 0
    endloop
  endfacet
  facet normal 0.707107 0 -0.707107
    outer loop
      vertex 20 60 0.24
      vertex 19.76 20.0994 0
      vertex 19.76 60 0
    endloop
  endfacet
  facet normal 0.707107 0 -0.707107
    outer loop
      vertex 19.76 20.0994 0
      vertex 20 60 0.24
      vertex 20 20 0.24
    endloop
  endfacet
  facet normal 0 -0.707107 -0.707107
    outer loop
      vertex 20.24 20.24 0
      vertex 60 20 0.24
      vertex 20 20 0.24
    endloop
  endfacet
  facet normal 0 -0.707107 -0.707107
    outer loop
      vertex 60 20 0.24
      vertex 20.24 20.24 0
      vertex 59.76 20.24 0
    endloop
  endfacet
  facet normal 0 0.707107 -0.707107
    outer loop
      vertex 59.9006 19.76 0
      vertex 20 20 0.24
      vertex 60 20 0.24
    endloop
  endfacet
  facet normal 0 0.707107 -0.707107
    outer loop
      vertex 20 20 0.24
      vertex 59.9006 19.76 0
      vertex 20.0994 19.76 0
    endloop
  endfacet
  facet normal 0.707107 0 -0.707107
    outer loop
      vertex 59.76 20.24 0
      vertex 60 60 0.24
      vertex 60 20 0.24
    endloop
  endfacet
  facet normal 0.707107 0 -0.707107
    outer loop
      vertex 60 60 0.24
      vertex 59.76 20.24 0
      vertex 59.76 59.76 0
    endloop
  endfacet
  facet normal -0.707107 0 -0.707107
    outer loop
      vertex 60 20 0.24
      vertex 60.24 59.9006 0
      vertex 60.24 20.0994 0
    endloop
  endfacet
  facet normal -0.707107 0 -0.707107
    outer loop
      vertex 60.24 59.9006 0
      vertex 60 20 0.24
      vertex 60 60 0.24
    endloop
  endfacet
  facet normal 1 0 0
    outer loop
      vertex 20 60.24 0
      vertex 20 60 0.24
      vertex 20 60 0
    endloop
  endfacet
  facet normal 0 -0.707107 -0.707107
    outer loop
      vertex 20 60 0.24
      vertex 59.9006 60.24 0
      vertex 60 60 0.24
    endloop
  endfacet
  facet normal -0 -0.707107 -0.707107
    outer loop
      vertex 59.9006 60.24 0
      vertex 20 60 0.24
      vertex 20 60.24 0
    endloop
  endfacet
  facet normal 0 0.707107 -0.707107
    outer loop
      vertex 20.24 59.76 0
      vertex 60 60 0.24
      vertex 59.76 59.76 0
    endloop
  endfacet
  facet normal 0 0.707107 -0.707107
    outer loop
      vertex 60 60 0.24
      vertex 20.24 59.76 0
      vertex 20 60 0.24
    endloop
  endfacet
  facet normal -0.500009 0.500008 -0.707095
    outer loop
      vertex 4.96971 4.63029 0
      vertex 20 20 0.24
      vertex 20.0994 19.76 0
    endloop
  endfacet
  facet normal -0.499994 0.499994 -0.707116
    outer loop
      vertex 20 20 0.24
      vertex 4.96971 4.63029 0
      vertex 0 0 0.24
    endloop
  endfacet
  facet normal -0.5 0.500001 -0.707106
    outer loop
      vertex 4.96971 4.63029 0
      vertex 0.339411 0 0
      vertex 0 0 0.24
    endloop
  endfacet
  facet normal 0.500008 -0.500009 -0.707095
    outer loop
      vertex 20 20 0.24
      vertex 4.63029 4.96971 0
      vertex 19.76 20.0994 0
    endloop
  endfacet
  facet normal 0.499994 -0.499994 -0.707116
    outer loop
      vertex 4.63029 4.96971 0
      vertex 20 20 0.24
      vertex 0 0 0.24
    endloop
  endfacet
  facet normal 0.500001 -0.5 -0.707106
    outer loop
      vertex 0 0.339411 0
      vertex 4.63029 4.96971 0
      vertex 0 0 0.24
    endloop
  endfacet
  facet normal 0.500008 -0.500008 -0.707095
    outer loop
      vertex 60 60 0.24
      vertex 79.6606 80 0
      vertex 80 80 0.24
    endloop
  endfacet
  facet normal 0.500008 -0.500008 -0.707095
    outer loop
      vertex 79.6606 80 0
      vertex 60 60 0.24
      vertex 59.9006 60.24 0
    endloop
  endfacet
  facet normal -0.500008 0.500008 -0.707095
    outer loop
      vertex 60 60 0.24
      vertex 80 79.6606 0
      vertex 60.24 59.9006 0
    endloop
  endfacet
  facet normal -0.500008 0.500008 -0.707095
    outer loop
      vertex 80 79.6606 0
      vertex 60 60 0.24
      vertex 80 80 0.24
    endloop
  endfacet
  facet normal -1 0 0
    outer loop
      vertex 80 0 0.24
      vertex 80 1.14441e-07 0
      vertex 80 0 0
    endloop
  endfacet
  facet normal -0.5 -0.5 -0.707107
    outer loop
      vertex 60 20 0.24
      vertex 80 0.339411 0
      vertex 80 0 0.24
    endloop
  endfacet
  facet normal -0.500008 -0.500008 -0.707095
    outer loop
      vertex 80 0.339411 0
      vertex 60 20 0.24
      vertex 60.24 20.0994 0
    endloop
  endfacet
  facet normal 0.500008 0.500009 -0.707095
    outer loop
      vertex 80 0 0.24
      vertex 79.6606 0 0
      vertex 75.0303 4.63029 0
    endloop
  endfacet
  facet normal 0.500001 0.500001 -0.707105
    outer loop
      vertex 75.0303 4.63029 0
      vertex 60 20 0.24
      vertex 80 0 0.24
    endloop
  endfacet
  facet normal 0.500008 0.500008 -0.707095
    outer loop
      vertex 60 20 0.24
      vertex 75.0303 4.63029 0
      vertex 59.9006 19.76 0
    endloop
  endfacet
  facet normal 1 0 0
    outer loop
      vertex 80 40 0.599999
      vertex 80 0.339411 0
      vertex 80 40 0.36
    endloop
  endfacet
  facet normal 1 -0 0
    outer loop
      vertex 80 0 0.599999
      vertex 80 0.339411 0
      vertex 80 40 0.599999
    endloop
  endfacet
  facet normal 1 0 0
    outer loop
      vertex 80 0.339411 0
      vertex 80 0 0.599999
      vertex 80 0 0.24
    endloop
  endfacet
  facet normal 1 0 0
    outer loop
      vertex 80 80 0.599999
      vertex 80 79.6606 0
      vertex 80 80 0.24
    endloop
  endfacet
  facet normal 1 -0 0
    outer loop
      vertex 80 40.3394 0.599999
      vertex 80 79.6606 0
      vertex 80 80 0.599999
    endloop
  endfacet
  facet normal 1 -0 0
    outer loop
      vertex 80 40 0.36
      vertex 80 79.6606 0
      vertex 80 40.3394 0.599999
    endloop
  endfacet
  facet normal 1 0 0
    outer loop
      vertex 80 79.6606 0
      vertex 80 40 0.36
      vertex 80 0.339411 0
    endloop
  endfacet
  facet normal 1 0 0
    outer loop
      vertex 80 0 0.24
      vertex 80 0 0
      vertex 80 1.14441e-07 0
    endloop
  endfacet
  facet normal 0 0 1
    outer loop
      vertex 59.8303 19.8303 0.599999
      vertex 35.3697 4.96969 0.599999
      vertex 40.1697 0.169705 0.599999
    endloop
  endfacet
  facet normal 0 0 1
    outer loop
      vertex 59.8303 19.8303 0.599999
      vertex 20.1697 20.1697 0.599999
      vertex 35.3697 4.96969 0.599999
    endloop
  endfacet
  facet normal 0 0 1
    outer loop
      vertex 20 59.6606 0.599999
      vertex 20.1697 20.1697 0.599999
      vertex 59.8303 19.8303 0.599999
    endloop
  endfacet
  facet normal -0 0 1
    outer loop
      vertex 9.76968 49.4303 0.599999
      vertex 20.1697 20.1697 0.599999
      vertex 20 59.6606 0.599999
    endloop
  endfacet
  facet normal -0 0 1
    outer loop
      vertex 0.169705 39.8303 0.599999
      vertex 20.1697 20.1697 0.599999
      vertex 9.76968 49.4303 0.599999
    endloop
  endfacet
  facet normal 0 0 1
    outer loop
      vertex 80 80 0.599999
      vertex 60.1697 60.1697 0.599999
      vertex 80 40.3394 0.599999
    endloop
  endfacet
  facet normal -0 0 1
    outer loop
      vertex 40.1697 79.8303 0.599999
      vertex 60.1697 60.1697 0.599999
      vertex 80 80 0.599999
    endloop
  endfacet
  facet normal 0 0 1
    outer loop
      vertex 60.1697 60.1697 0.599999
      vertex 40.1697 79.8303 0.599999
      vertex 59.8303 59.8303 0.599999
    endloop
  endfacet
  facet normal 0 -0 1
    outer loop
      vertex 40.1697 79.8303 0.599999
      vertex 80 80 0.599999
      vertex 40 80 0.599999
    endloop
  endfacet
  facet normal 0 0 1
    outer loop
      vertex 59.8303 59.8303 0.599999
      vertex 60.1697 20.1697 0.599999
      vertex 79.8303 39.8303 0.599999
    endloop
  endfacet
  facet normal -0 0 1
    outer loop
      vertex 20.3394 60 0.599999
      vertex 59.8303 59.8303 0.599999
      vertex 40.1697 79.8303 0.599999
    endloop
  endfacet
  facet normal 0 0 1
    outer loop
      vertex 59.8303 59.8303 0.599999
      vertex 20.3394 60 0.599999
      vertex 60.1697 20.1697 0.599999
    endloop
  endfacet
  facet normal -0 0 1
    outer loop
      vertex 79.8303 39.8303 0.599999
      vertex 80 0 0.599999
      vertex 80 40 0.599999
    endloop
  endfacet
  facet normal -0 0 1
    outer loop
      vertex 60.1697 20.1697 0.599999
      vertex 80 0 0.599999
      vertex 79.8303 39.8303 0.599999
    endloop
  endfacet
  facet normal -0 0 1
    outer loop
      vertex 59.8303 19.8303 0.599999
      vertex 80 0 0.599999
      vertex 60.1697 20.1697 0.599999
    endloop
  endfacet
  facet normal -0 0 1
    outer loop
      vertex 40.1697 0.169705 0.599999
      vertex 80 0 0.599999
      vertex 59.8303 19.8303 0.599999
    endloop
  endfacet
  facet normal 0 0 1
    outer loop
      vertex 80 0 0.599999
      vertex 40.1697 0.169705 0.599999
      vertex 40 0 0.599999
    endloop
  endfacet
  facet normal 0 0 1
    outer loop
      vertex 0 0 0.599999
      vertex 35.0303 4.63028 0.599999
      vertex 19.8303 19.8303 0.599999
    endloop
  endfacet
  facet normal 0 0 1
    outer loop
      vertex 20.1697 20.1697 0.599999
      vertex 0.169705 39.8303 0.599999
      vertex 19.8303 19.8303 0.599999
    endloop
  endfacet
  facet normal 0 0 1
    outer loop
      vertex 0 0 0.599999
      vertex 0.169705 39.8303 0.599999
      vertex 0 40 0.599999
    endloop
  endfacet
  facet normal 0 0 1
    outer loop
      vertex 35.0303 4.63028 0.599999
      vertex 0 0 0.599999
      vertex 39.6606 0 0.599999
    endloop
  endfacet
  facet normal 0 0 1
    outer loop
      vertex 0.169705 39.8303 0.599999
      vertex 0 0 0.599999
      vertex 19.8303 19.8303 0.599999
    endloop
  endfacet
  facet normal 0 0 1
    outer loop
      vertex 14.2303 65.4303 0.599999
      vertex 9.43027 49.7697 0.599999
      vertex 19.6606 60 0.599999
    endloop
  endfacet
  facet normal 0 0 1
    outer loop
      vertex 0 79.6606 0.599999
      vertex 9.43027 49.7697 0.599999
      vertex 14.2303 65.4303 0.599999
    endloop
  endfacet
  facet normal 0 0 1
    outer loop
      vertex 9.43027 49.7697 0.599999
      vertex 0 79.6606 0.599999
      vertex 0 40.3394 0.599999
    endloop
  endfacet
  facet normal 0 0 1
    outer loop
      vertex 39.6606 80 0.599999
      vertex 0.33941 80 0.599999
      vertex 20 60.3394 0.599999
    endloop
  endfacet
  facet normal -0 0 -1
    outer loop
      vertex 19.76 20.0994 0
      vertex 4.63029 4.96971 0
      vertex 19.76 60 0
    endloop
  endfacet
  facet normal 0 0 -1
    outer loop
      vertex 20 60 0
      vertex 19.76 60 0
      vertex 20 60.24 0
    endloop
  endfacet
  facet normal 0 0 -1
    outer loop
      vertex 20 60.24 0
      vertex 79.6606 80 0
      vertex 59.9006 60.24 0
    endloop
  endfacet
  facet normal 0 0 -1
    outer loop
      vertex 0 80 0
      vertex 4.63029 4.96971 0
      vertex 0 0.339411 0
    endloop
  endfacet
  facet normal 0 0 -1
    outer loop
      vertex 20 60.24 0
      vertex 0 80 0
      vertex 79.6606 80 0
    endloop
  endfacet
  facet normal 0 0 -1
    outer loop
      vertex 19.76 60 0
      vertex 0 80 0
      vertex 20 60.24 0
    endloop
  endfacet
  facet normal 0 0 -1
    outer loop
      vertex 4.63029 4.96971 0
      vertex 0 80 0
      vertex 19.76 60 0
    endloop
  endfacet
  facet normal 0 0 -1
    outer loop
      vertex 4.96971 4.63029 0
      vertex 75.0303 4.63029 0
      vertex 79.6606 0 0
    endloop
  endfacet
  facet normal 0 0 -1
    outer loop
      vertex 75.0303 4.63029 0
      vertex 4.96971 4.63029 0
      vertex 59.9006 19.76 0
    endloop
  endfacet
  facet normal -0 0 -1
    outer loop
      vertex 59.9006 19.76 0
      vertex 4.96971 4.63029 0
      vertex 20.0994 19.76 0
    endloop
  endfacet
  facet normal 0 -0 -1
    outer loop
      vertex 4.96971 4.63029 0
      vertex 79.6606 0 0
      vertex 0.339411 0 0
    endloop
  endfacet
  facet normal 0 0 -1
    outer loop
      vertex 60.24 20.0994 0
      vertex 80 79.6606 0
      vertex 80 0.339411 0
    endloop
  endfacet
  facet normal 0 0 -1
    outer loop
      vertex 80 79.6606 0
      vertex 60.24 20.0994 0
      vertex 60.24 59.9006 0
    endloop
  endfacet
  facet normal 0 0 -1
    outer loop
      vertex 20.24 20.24 0
      vertex 59.76 59.76 0
      vertex 59.76 20.24 0
    endloop
  endfacet
  facet normal -0 0 -1
    outer loop
      vertex 59.76 59.76 0
      vertex 20.24 20.24 0
      vertex 20.24 59.76 0
    endloop
  endfacet
  facet normal -1 0 0
    outer loop
      vertex 0 80 0
      vertex 0 79.6606 0.599999
      vertex 0 80 0.36
    endloop
  endfacet
  facet normal -1 0 0
    outer loop
      vertex 0 80 0
      vertex 0 40.3394 0.599999
      vertex 0 79.6606 0.599999
    endloop
  endfacet
  facet normal -1 0 0
    outer loop
      vertex 0 80 0
      vertex 0 40 0.36
      vertex 0 40.3394 0.599999
    endloop
  endfacet
  facet normal -1 0 0
    outer loop
      vertex 0 0.339411 0
      vertex 0 40 0.36
      vertex 0 80 0
    endloop
  endfacet
  facet normal -1 0 0
    outer loop
      vertex 0 0.339411 0
      vertex 0 40 0.599999
      vertex 0 40 0.36
    endloop
  endfacet
  facet normal -1 0 0
    outer loop
      vertex 0 0 0.599999
      vertex 0 0.339411 0
      vertex 0 0 0.24
    endloop
  endfacet
  facet normal -1 0 0
    outer loop
      vertex 0 0.339411 0
      vertex 0 0 0.599999
      vertex 0 40 0.599999
    endloop
  endfacet
  facet normal 0 1 0
    outer loop
      vertex 1.14441e-07 80 0.599999
      vertex 0 80 0.36
      vertex 0 80 0.599999
    endloop
  endfacet
  facet normal 0 1 -0
    outer loop
      vertex 79.6606 80 0
      vertex 40 80 0.599999
      vertex 80 80 0.599999
    endloop
  endfacet
  facet normal 0 1 0
    outer loop
      vertex 79.6606 80 0
      vertex 80 80 0.599999
      vertex 80 80 0.24
    endloop
  endfacet
  facet normal 0 1 0
    outer loop
      vertex 40 80 0.599999
      vertex 79.6606 80 0
      vertex 40 80 0.36
    endloop
  endfacet
  facet normal 0 1 0
    outer loop
      vertex 0 80 0
      vertex 40 80 0.36
      vertex 79.6606 80 0
    endloop
  endfacet
  facet normal 0 1 0
    outer loop
      vertex 40 80 0.36
      vertex 0 80 0
      vertex 0 80 0.36
    endloop
  endfacet
  facet normal 0 1 0
    outer loop
      vertex 40 80 0.36
      vertex 0.33941 80 0.599999
      vertex 39.6606 80 0.599999
    endloop
  endfacet
  facet normal 0 1 0
    outer loop
      vertex 0.33941 80 0.599999
      vertex 40 80 0.36
      vertex 0 80 0.36
    endloop
  endfacet
  facet normal 0 -1 0
    outer loop
      vertex 0.339411 0 0
      vertex 39.6606 0 0.599999
      vertex 0 0 0.599999
    endloop
  endfacet
  facet normal 0 -1 0
    outer loop
      vertex 0.339411 0 0
      vertex 0 0 0.599999
      vertex 0 0 0.24
    endloop
  endfacet
  facet normal 0 -1 0
    outer loop
      vertex 79.6606 0 0
      vertex 40 0 0.599999
      vertex 40 0 0.36
    endloop
  endfacet
  facet normal 0 -1 0
    outer loop
      vertex 40 0 0.599999
      vertex 79.6606 0 0
      vertex 80 0 0.599999
    endloop
  endfacet
  facet normal 0 -1 -0
    outer loop
      vertex 39.6606 0 0.599999
      vertex 0.339411 0 0
      vertex 40 0 0.36
    endloop
  endfacet
  facet normal 0 -1 0
    outer loop
      vertex 79.6606 0 0
      vertex 40 0 0.36
      vertex 0.339411 0 0
    endloop
  endfacet
  facet normal 0 -1 -0
    outer loop
      vertex 80 0 0.599999
      vertex 79.6606 0 0
      vertex 80 0 0.24
    endloop
  endfacet
endsolid OpenSCAD_Model
