solid OpenSCAD_Model
  facet normal -0.707107 -0.707107 0
    outer loop
      vertex 20.3536 60 0.8
      vertex 20.8536 59.5 1
      vertex 20.3536 60 1
    endloop
  endfacet
  facet normal -0.707107 -0.707107 0
    outer loop
      vertex 20.8536 59.5 1
      vertex 20.3536 60 0.8
      vertex 59.5 20.8536 1
    endloop
  endfacet
  facet normal -0.707107 -0.707107 0
    outer loop
      vertex 60.1768 20.1768 0.8
      vertex 59.5 20.8536 1
      vertex 20.3536 60 0.8
    endloop
  endfacet
  facet normal -0.707107 -0.707107 0
    outer loop
      vertex 59.5 20.8536 1
      vertex 60.1768 20.1768 0.8
      vertex 60.1768 20.1768 1
    endloop
  endfacet
  facet normal -0.707107 -0.707107 0
    outer loop
      vertex 20.8536 59.5 1
      vertex 59.5 20.8536 1.2
      vertex 20.8536 59.5 1.2
    endloop
  endfacet
  facet normal -0.707107 -0.707107 -0
    outer loop
      vertex 59.5 20.8536 1.2
      vertex 20.8536 59.5 1
      vertex 59.5 20.8536 1
    endloop
  endfacet
  facet normal -0.707106 -0.707108 0
    outer loop
      vertex 0.353552 80 0.8
      vertex 20 60.3536 1.2
      vertex 0.353552 80 1.2
    endloop
  endfacet
  facet normal -0.707106 -0.707108 -0
    outer loop
      vertex 20 60.3536 1.2
      vertex 0.353552 80 0.8
      vertex 20 60.3536 0.8
    endloop
  endfacet
  facet normal -0.707107 0.707107 0
    outer loop
      vertex 59.8232 19.8232 0.8
      vertex 60.1768 20.1768 1
      vertex 60.1768 20.1768 0.8
    endloop
  endfacet
  facet normal -0.707107 0.707107 0
    outer loop
      vertex 60.1768 20.1768 1
      vertex 59.8232 19.8232 0.8
      vertex 59.8232 19.8232 1
    endloop
  endfacet
  facet normal 0 -1 0
    outer loop
      vertex 0 80 0.8
      vertex 4.76836e-07 80 1.2
      vertex 0 80 1.2
    endloop
  endfacet
  facet normal 0 -1 -0
    outer loop
      vertex 4.76836e-07 80 1.2
      vertex 0 80 0.8
      vertex 4.76836e-07 80 0.8
    endloop
  endfacet
  facet normal 0.707107 0.707107 0
    outer loop
      vertex 20.5 59.1464 1.2
      vertex 59.1464 20.5 1.2
      vertex 20.5 59.1464 1
    endloop
  endfacet
  facet normal 0.707107 0.707107 0
    outer loop
      vertex 20.5 59.1464 1
      vertex 20 59.6464 0.8
      vertex 20 59.6464 1
    endloop
  endfacet
  facet normal 0.707107 0.707107 -0
    outer loop
      vertex 59.1464 20.5 1
      vertex 20.5 59.1464 1
      vertex 59.1464 20.5 1.2
    endloop
  endfacet
  facet normal 0.707107 0.707107 0
    outer loop
      vertex 20.5 59.1464 1
      vertex 59.1464 20.5 1
      vertex 20 59.6464 0.8
    endloop
  endfacet
  facet normal 0.707107 0.707107 -0
    outer loop
      vertex 59.8232 19.8232 0.8
      vertex 59.1464 20.5 1
      vertex 59.8232 19.8232 1
    endloop
  endfacet
  facet normal 0.707107 0.707107 0
    outer loop
      vertex 59.1464 20.5 1
      vertex 59.8232 19.8232 0.8
      vertex 20 59.6464 0.8
    endloop
  endfacet
  facet normal 0.707107 0.707107 -0
    outer loop
      vertex 19.6464 60 1
      vertex 0 79.6464 1.2
      vertex 19.6464 60 1.2
    endloop
  endfacet
  facet normal 0.707107 0.707107 0
    outer loop
      vertex 0 79.6464 1.2
      vertex 19.6464 60 1
      vertex 0 79.6464 0.8
    endloop
  endfacet
  facet normal 0.707107 0.707107 0
    outer loop
      vertex 0 79.6464 0.8
      vertex 19.6464 60 1
      vertex 19.6464 60 0.8
    endloop
  endfacet
  facet normal -0 0 1
    outer loop
      vertex 39.6464 80 0.8
      vertex 40.1768 79.8232 0.8
      vertex 40 80 0.8
    endloop
  endfacet
  facet normal 0 0 1
    outer loop
      vertex 39.6464 80 0.8
      vertex 20.3536 60 0.8
      vertex 40.1768 79.8232 0.8
    endloop
  endfacet
  facet normal 0 -0 1
    outer loop
      vertex 20.3536 60 0.8
      vertex 39.6464 80 0.8
      vertex 20 60.3536 0.8
    endloop
  endfacet
  facet normal 0 0 1
    outer loop
      vertex 20.3536 60 0.8
      vertex 59.8232 19.8232 0.8
      vertex 60.1768 20.1768 0.8
    endloop
  endfacet
  facet normal 0 0 1
    outer loop
      vertex 20 59.6464 0.8
      vertex 20.3536 60 0.8
      vertex 20 60.3536 0.8
    endloop
  endfacet
  facet normal 0 0 1
    outer loop
      vertex 20.3536 60 0.8
      vertex 20 59.6464 0.8
      vertex 59.8232 19.8232 0.8
    endloop
  endfacet
  facet normal 0 0 1
    outer loop
      vertex 20 60.3536 0.8
      vertex 19.6464 60 0.8
      vertex 20 59.6464 0.8
    endloop
  endfacet
  facet normal 0 0 1
    outer loop
      vertex 0.353552 80 0.8
      vertex 19.6464 60 0.8
      vertex 20 60.3536 0.8
    endloop
  endfacet
  facet normal 0 0 1
    outer loop
      vertex 0 79.6464 0.8
      vertex 0.353552 80 0.8
      vertex 4.76836e-07 80 0.8
    endloop
  endfacet
  facet normal 0 0 1
    outer loop
      vertex 0 79.6464 0.8
      vertex 4.76836e-07 80 0.8
      vertex 0 80 0.8
    endloop
  endfacet
  facet normal 0 0 1
    outer loop
      vertex 0.353552 80 0.8
      vertex 0 79.6464 0.8
      vertex 19.6464 60 0.8
    endloop
  endfacet
  facet normal 0 0 1
    outer loop
      vertex 0 40.3536 0.8
      vertex 20 59.6464 0.8
      vertex 19.6464 60 0.8
    endloop
  endfacet
  facet normal 0 0 1
    outer loop
      vertex 20 59.6464 0.8
      vertex 0 40.3536 0.8
      vertex 0.176776 39.8232 0.8
    endloop
  endfacet
  facet normal 0 0 1
    outer loop
      vertex 0.176776 39.8232 0.8
      vertex 0 40.3536 0.8
      vertex 0 40 0.8
    endloop
  endfacet
  facet normal -0.707107 -0.707107 0
    outer loop
      vertex 40 80 0.8
      vertex 40.1768 79.8232 1.2
      vertex 40 80 1.2
    endloop
  endfacet
  facet normal -0.707107 -0.707107 -0
    outer loop
      vertex 40.1768 79.8232 1.2
      vertex 40 80 0.8
      vertex 40.1768 79.8232 0.8
    endloop
  endfacet
  facet normal 0.707155 0.707059 0
    outer loop
      vertex 0.176776 39.8232 1.2
      vertex 0 40 0.8
      vertex 0 40 1.2
    endloop
  endfacet
  facet normal 0.707155 0.707059 0
    outer loop
      vertex 0 40 0.8
      vertex 0.176776 39.8232 1.2
      vertex 0.176776 39.8232 0.8
    endloop
  endfacet
  facet normal 0.707107 -0.707107 0
    outer loop
      vertex 20.1464 60.5 1
      vertex 39.6464 80 1.2
      vertex 20.1464 60.5 1.2
    endloop
  endfacet
  facet normal 0.707107 -0.707107 0
    outer loop
      vertex 39.6464 80 1.2
      vertex 20.1464 60.5 1
      vertex 39.6464 80 0.8
    endloop
  endfacet
  facet normal 0.707107 -0.707107 0
    outer loop
      vertex 20 60.3536 0.8
      vertex 20.1464 60.5 1
      vertex 20 60.3536 1
    endloop
  endfacet
  facet normal 0.707107 -0.707107 0
    outer loop
      vertex 20.1464 60.5 1
      vertex 20 60.3536 0.8
      vertex 39.6464 80 0.8
    endloop
  endfacet
  facet normal 0 0 0
    outer loop
      vertex 20 60.3536 0.8
      vertex 20 60.3536 1
      vertex 20 60.3536 1.2
    endloop
  endfacet
  facet normal 0.707107 -0.707107 0
    outer loop
      vertex 0 40.3536 1.2
      vertex 19.5 59.8536 1
      vertex 19.5 59.8536 1.2
    endloop
  endfacet
  facet normal 0.707107 -0.707107 0
    outer loop
      vertex 0 40.3536 0.8
      vertex 19.5 59.8536 1
      vertex 0 40.3536 1.2
    endloop
  endfacet
  facet normal 0.707107 -0.707107 0
    outer loop
      vertex 19.6464 60 0.8
      vertex 19.5 59.8536 1
      vertex 0 40.3536 0.8
    endloop
  endfacet
  facet normal 0.707107 -0.707107 0
    outer loop
      vertex 19.5 59.8536 1
      vertex 19.6464 60 0.8
      vertex 19.6464 60 1
    endloop
  endfacet
  facet normal -0.707107 0.707107 0
    outer loop
      vertex 40.1768 79.8232 0.8
      vertex 20.8536 60.5 1
      vertex 40.1768 79.8232 1.2
    endloop
  endfacet
  facet normal -0.707107 0.707107 0
    outer loop
      vertex 20.3536 60 0.8
      vertex 20.8536 60.5 1
      vertex 40.1768 79.8232 0.8
    endloop
  endfacet
  facet normal -0.707107 0.707107 0
    outer loop
      vertex 20.8536 60.5 1
      vertex 20.3536 60 0.8
      vertex 20.3536 60 1
    endloop
  endfacet
  facet normal -0.707107 0.707107 0
    outer loop
      vertex 40.1768 79.8232 1.2
      vertex 20.8536 60.5 1
      vertex 20.8536 60.5 1.2
    endloop
  endfacet
  facet normal -0.707107 0.707107 0
    outer loop
      vertex 20 59.6464 0.8
      vertex 19.5 59.1464 1
      vertex 20 59.6464 1
    endloop
  endfacet
  facet normal -0.707106 0.707107 2.14024e-06
    outer loop
      vertex 0.176776 39.8232 0.8
      vertex 19.5 59.1464 1
      vertex 20 59.6464 0.8
    endloop
  endfacet
  facet normal -0.707106 0.707107 0
    outer loop
      vertex 0.176776 39.8232 1.2
      vertex 19.5 59.1464 1
      vertex 0.176776 39.8232 0.8
    endloop
  endfacet
  facet normal -0.707106 0.707107 0
    outer loop
      vertex 19.5 59.1464 1
      vertex 0.176776 39.8232 1.2
      vertex 19.5 59.1464 1.2
    endloop
  endfacet
  facet normal -0.707107 -0.707107 0
    outer loop
      vertex 20.1768 20.1768 0.8
      vertex 20.8536 19.5 1
      vertex 20.1768 20.1768 1
    endloop
  endfacet
  facet normal -0.707107 -0.707106 2.87142e-06
    outer loop
      vertex 40.1768 0.176776 0.8
      vertex 20.8536 19.5 1
      vertex 20.1768 20.1768 0.8
    endloop
  endfacet
  facet normal -0.707107 -0.707106 -0
    outer loop
      vertex 40.1768 0.176776 1.2
      vertex 20.8536 19.5 1
      vertex 40.1768 0.176776 0.8
    endloop
  endfacet
  facet normal -0.707107 -0.707106 0
    outer loop
      vertex 20.8536 19.5 1
      vertex 40.1768 0.176776 1.2
      vertex 20.8536 19.5 1.2
    endloop
  endfacet
  facet normal -0.707059 0.707155 0
    outer loop
      vertex 40.1768 0.176776 0.8
      vertex 40 0 1.2
      vertex 40.1768 0.176776 1.2
    endloop
  endfacet
  facet normal -0.707059 0.707155 0
    outer loop
      vertex 40 0 1.2
      vertex 40.1768 0.176776 0.8
      vertex 40 0 0.8
    endloop
  endfacet
  facet normal 0.707107 -0.707107 0
    outer loop
      vertex 20 20 1
      vertex 20.1768 20.1768 0.8
      vertex 20.1768 20.1768 1
    endloop
  endfacet
  facet normal 0.707107 -0.707107 0
    outer loop
      vertex 19.8232 19.8232 0.8
      vertex 20 20 1
      vertex 19.8232 19.8232 1
    endloop
  endfacet
  facet normal 0.707107 -0.707107 0
    outer loop
      vertex 20 20 1
      vertex 19.8232 19.8232 0.8
      vertex 20.1768 20.1768 0.8
    endloop
  endfacet
  facet normal 0.707109 0.707105 0
    outer loop
      vertex 20.1768 19.4697 1.2
      vertex 39.6464 0 1.2
      vertex 20.1768 19.4697 1
    endloop
  endfacet
  facet normal 0.707007 0.707207 0
    outer loop
      vertex 20.1768 19.4697 1
      vertex 19.8232 19.8232 0.8
      vertex 19.8232 19.8232 1
    endloop
  endfacet
  facet normal 0.707109 0.707105 -0
    outer loop
      vertex 39.6464 0 0.8
      vertex 20.1768 19.4697 1
      vertex 39.6464 0 1.2
    endloop
  endfacet
  facet normal 0.707107 0.707107 -0.000353553
    outer loop
      vertex 20.1768 19.4697 1
      vertex 39.6464 0 0.8
      vertex 19.8232 19.8232 0.8
    endloop
  endfacet
  facet normal 0 0 1
    outer loop
      vertex 40.1768 0.176776 0.8
      vertex 39.6464 0 0.8
      vertex 40 0 0.8
    endloop
  endfacet
  facet normal 0 0 1
    outer loop
      vertex 20.1768 20.1768 0.8
      vertex 39.6464 0 0.8
      vertex 40.1768 0.176776 0.8
    endloop
  endfacet
  facet normal 0 0 1
    outer loop
      vertex 39.6464 0 0.8
      vertex 20.1768 20.1768 0.8
      vertex 19.8232 19.8232 0.8
    endloop
  endfacet
  facet normal -0.707207 -0.707007 0
    outer loop
      vertex 60.1768 60.1768 0.8
      vertex 60.5303 59.8232 1
      vertex 60.1768 60.1768 1
    endloop
  endfacet
  facet normal -0.707107 -0.707107 -0.000353553
    outer loop
      vertex 80 40.3536 0.8
      vertex 60.5303 59.8232 1
      vertex 60.1768 60.1768 0.8
    endloop
  endfacet
  facet normal -0.707105 -0.707109 -0
    outer loop
      vertex 80 40.3536 1.2
      vertex 60.5303 59.8232 1
      vertex 80 40.3536 0.8
    endloop
  endfacet
  facet normal -0.707105 -0.707109 0
    outer loop
      vertex 60.5303 59.8232 1
      vertex 80 40.3536 1.2
      vertex 60.5303 59.8232 1.2
    endloop
  endfacet
  facet normal -0.707107 0.707107 0
    outer loop
      vertex 79.8232 39.8232 0.8
      vertex 80 40 1.2
      vertex 80 40 0.8
    endloop
  endfacet
  facet normal -0.707107 0.707107 0
    outer loop
      vertex 80 40 1.2
      vertex 79.8232 39.8232 0.8
      vertex 79.8232 39.8232 1.2
    endloop
  endfacet
  facet normal 0.707107 -0.707107 0
    outer loop
      vertex 59.8232 59.8232 1
      vertex 60.1768 60.1768 0.8
      vertex 60.1768 60.1768 1
    endloop
  endfacet
  facet normal 0.707107 -0.707107 0
    outer loop
      vertex 60.1768 60.1768 0.8
      vertex 59.8232 59.8232 1
      vertex 59.8232 59.8232 0.8
    endloop
  endfacet
  facet normal 0 0 1
    outer loop
      vertex 80 40.3536 0.8
      vertex 79.8232 39.8232 0.8
      vertex 80 40 0.8
    endloop
  endfacet
  facet normal -0 0 1
    outer loop
      vertex 59.8232 59.8232 0.8
      vertex 80 40.3536 0.8
      vertex 60.1768 60.1768 0.8
    endloop
  endfacet
  facet normal 0 0 1
    outer loop
      vertex 80 40.3536 0.8
      vertex 59.8232 59.8232 0.8
      vertex 79.8232 39.8232 0.8
    endloop
  endfacet
  facet normal 0.707107 0.707107 0
    outer loop
      vertex 79.8232 39.8232 1.2
      vertex 60.5 59.1464 1
      vertex 60.5 59.1464 1.2
    endloop
  endfacet
  facet normal 0.707107 0.707107 -0
    outer loop
      vertex 79.8232 39.8232 0.8
      vertex 60.5 59.1464 1
      vertex 79.8232 39.8232 1.2
    endloop
  endfacet
  facet normal 0.707107 0.707107 0
    outer loop
      vertex 59.8232 59.8232 0.8
      vertex 60.5 59.1464 1
      vertex 79.8232 39.8232 0.8
    endloop
  endfacet
  facet normal 0.707107 0.707107 0
    outer loop
      vertex 60.5 59.1464 1
      vertex 59.8232 59.8232 0.8
      vertex 59.8232 59.8232 1
    endloop
  endfacet
  facet normal -0.706765 -0.707448 0
    outer loop
      vertex 60.25 20.4571 0
      vertex 60.3536 20.3536 0.2
      vertex 60.25 20.4571 0.2
    endloop
  endfacet
  facet normal -0.706765 -0.707448 -0
    outer loop
      vertex 60.3536 20.3536 0.2
      vertex 60.25 20.4571 0
      vertex 60.3536 20.3536 0
    endloop
  endfacet
  facet normal -0.707107 -0.707107 0
    outer loop
      vertex 59.75 20.9571 0
      vertex 20.9571 59.75 0.2
      vertex 20.9571 59.75 0
    endloop
  endfacet
  facet normal -0.707107 -0.707107 0
    outer loop
      vertex 20.9571 59.75 0.2
      vertex 59.75 20.9571 0
      vertex 59.75 20.9571 0.2
    endloop
  endfacet
  facet normal -0.707107 -0.707107 0
    outer loop
      vertex 0.707106 80 0
      vertex 20 60.7071 0.2
      vertex 0.707106 80 0.2
    endloop
  endfacet
  facet normal -0.707107 -0.707107 -0
    outer loop
      vertex 20 60.7071 0.2
      vertex 0.707106 80 0
      vertex 20 60.7071 0
    endloop
  endfacet
  facet normal -0.707107 0.707107 0
    outer loop
      vertex 60.25 20.25 0
      vertex 60.3536 20.3536 0.2
      vertex 60.3536 20.3536 0
    endloop
  endfacet
  facet normal -0.707107 0.707107 0
    outer loop
      vertex 60.3536 20.3536 0.2
      vertex 60.25 20.25 0
      vertex 60.25 20.25 0.2
    endloop
  endfacet
  facet normal -0.707107 0.707107 0
    outer loop
      vertex 59.6464 19.6464 0
      vertex 59.75 19.75 0.2
      vertex 59.75 19.75 0
    endloop
  endfacet
  facet normal -0.707107 0.707107 0
    outer loop
      vertex 59.75 19.75 0.2
      vertex 59.6464 19.6464 0
      vertex 59.6464 19.6464 0.2
    endloop
  endfacet
  facet normal 0 -1 0
    outer loop
      vertex 0 80 0
      vertex 4.76837e-07 80 0.2
      vertex 0 80 0.2
    endloop
  endfacet
  facet normal 0 -1 -0
    outer loop
      vertex 4.76837e-07 80 0.2
      vertex 0 80 0
      vertex 4.76837e-07 80 0
    endloop
  endfacet
  facet normal 0.707448 0.706765 0
    outer loop
      vertex 59.6464 19.6464 0.2
      vertex 59.5429 19.75 0
      vertex 59.5429 19.75 0.2
    endloop
  endfacet
  facet normal 0.707448 0.706765 0
    outer loop
      vertex 59.5429 19.75 0
      vertex 59.6464 19.6464 0.2
      vertex 59.6464 19.6464 0
    endloop
  endfacet
  facet normal 0.707107 0.707107 0
    outer loop
      vertex 59.0429 20.25 0.2
      vertex 20.25 59.0429 0
      vertex 20.25 59.0429 0.2
    endloop
  endfacet
  facet normal 0.707107 0.707107 0
    outer loop
      vertex 20.25 59.0429 0
      vertex 59.0429 20.25 0.2
      vertex 59.0429 20.25 0
    endloop
  endfacet
  facet normal 0.707107 0.707107 -0
    outer loop
      vertex 19.2929 60 0
      vertex 0 79.2929 0.2
      vertex 19.2929 60 0.2
    endloop
  endfacet
  facet normal 0.707107 0.707107 0
    outer loop
      vertex 0 79.2929 0.2
      vertex 19.2929 60 0
      vertex 0 79.2929 0
    endloop
  endfacet
  facet normal 0 0 -1
    outer loop
      vertex 19.75 59.0429 0.2
      vertex 19.2929 60 0.2
      vertex 19.75 60 0.2
    endloop
  endfacet
  facet normal 0 0 -1
    outer loop
      vertex 0 40.7071 0.2
      vertex 19.75 59.0429 0.2
      vertex 0.353553 39.6464 0.2
    endloop
  endfacet
  facet normal 0 0 -1
    outer loop
      vertex 0 40.7071 0.2
      vertex 0.353553 39.6464 0.2
      vertex 0 40 0.2
    endloop
  endfacet
  facet normal -0 0 -1
    outer loop
      vertex 19.75 59.0429 0.2
      vertex 0 40.7071 0.2
      vertex 19.2929 60 0.2
    endloop
  endfacet
  facet normal 0 0 -1
    outer loop
      vertex 19.75 60 0.2
      vertex 20 60.25 0.2
      vertex 20 60 0.2
    endloop
  endfacet
  facet normal -0 0 -1
    outer loop
      vertex 20 60.25 0.2
      vertex 19.75 60 0.2
      vertex 20 60.7071 0.2
    endloop
  endfacet
  facet normal 0 0 -1
    outer loop
      vertex 19.2929 60 0.2
      vertex 20 60.7071 0.2
      vertex 19.75 60 0.2
    endloop
  endfacet
  facet normal 0 0 -1
    outer loop
      vertex 19.2929 60 0.2
      vertex 0.707106 80 0.2
      vertex 20 60.7071 0.2
    endloop
  endfacet
  facet normal 0 0 -1
    outer loop
      vertex 0 79.2929 0.2
      vertex 0.707106 80 0.2
      vertex 19.2929 60 0.2
    endloop
  endfacet
  facet normal -0 0 -1
    outer loop
      vertex 0.707106 80 0.2
      vertex 0 79.2929 0.2
      vertex 4.76837e-07 80 0.2
    endloop
  endfacet
  facet normal -0 0 -1
    outer loop
      vertex 4.76837e-07 80 0.2
      vertex 0 79.2929 0.2
      vertex 0 80 0.2
    endloop
  endfacet
  facet normal 0 0 -1
    outer loop
      vertex 40.3536 79.6464 0.2
      vertex 39.2929 80 0.2
      vertex 40 80 0.2
    endloop
  endfacet
  facet normal 0 0 -1
    outer loop
      vertex 20.9571 60.25 0.2
      vertex 39.2929 80 0.2
      vertex 40.3536 79.6464 0.2
    endloop
  endfacet
  facet normal 0 0 -1
    outer loop
      vertex 20 60.7071 0.2
      vertex 20.9571 60.25 0.2
      vertex 20 60.25 0.2
    endloop
  endfacet
  facet normal 0 0 -1
    outer loop
      vertex 20.9571 60.25 0.2
      vertex 20 60.7071 0.2
      vertex 39.2929 80 0.2
    endloop
  endfacet
  facet normal 0 0 -1
    outer loop
      vertex 60.25 20.4571 0.2
      vertex 60.3536 20.3536 0.2
      vertex 60.25 20.25 0.2
    endloop
  endfacet
  facet normal -0 0 -1
    outer loop
      vertex 59.75 19.75 0.2
      vertex 59.6464 19.6464 0.2
      vertex 59.5429 19.75 0.2
    endloop
  endfacet
  facet normal 0 0 -1
    outer loop
      vertex 59.0429 20.25 0.2
      vertex 59.75 20.9571 0.2
      vertex 59.75 20.25 0.2
    endloop
  endfacet
  facet normal 0 0 -1
    outer loop
      vertex 59.0429 20.25 0.2
      vertex 20.9571 59.75 0.2
      vertex 59.75 20.9571 0.2
    endloop
  endfacet
  facet normal 0 0 -1
    outer loop
      vertex 20.25 59.0429 0.2
      vertex 20.9571 59.75 0.2
      vertex 59.0429 20.25 0.2
    endloop
  endfacet
  facet normal -0 0 -1
    outer loop
      vertex 20.9571 59.75 0.2
      vertex 20.25 59.0429 0.2
      vertex 20.25 59.75 0.2
    endloop
  endfacet
  facet normal -0.707107 -0.707107 0
    outer loop
      vertex 40.3536 79.6464 0
      vertex 40 80 0.2
      vertex 40 80 0
    endloop
  endfacet
  facet normal -0.707107 -0.707107 0
    outer loop
      vertex 40 80 0.2
      vertex 40.3536 79.6464 0
      vertex 40.3536 79.6464 0.2
    endloop
  endfacet
  facet normal 0.707154 0.70706 0
    outer loop
      vertex 0.353553 39.6464 0.2
      vertex 0 40 0
      vertex 0 40 0.2
    endloop
  endfacet
  facet normal 0.707154 0.70706 0
    outer loop
      vertex 0 40 0
      vertex 0.353553 39.6464 0.2
      vertex 0.353553 39.6464 0
    endloop
  endfacet
  facet normal 0.707107 -0.707107 0
    outer loop
      vertex 20 60.7071 0.2
      vertex 39.2929 80 0
      vertex 39.2929 80 0.2
    endloop
  endfacet
  facet normal 0.707107 -0.707107 0
    outer loop
      vertex 39.2929 80 0
      vertex 20 60.7071 0.2
      vertex 20 60.7071 0
    endloop
  endfacet
  facet normal 0.707107 -0.707107 0
    outer loop
      vertex 0 40.7071 0
      vertex 19.2929 60 0.2
      vertex 0 40.7071 0.2
    endloop
  endfacet
  facet normal 0.707107 -0.707107 0
    outer loop
      vertex 19.2929 60 0.2
      vertex 0 40.7071 0
      vertex 19.2929 60 0
    endloop
  endfacet
  facet normal -0.707105 0.707109 0
    outer loop
      vertex 20.9571 60.25 0
      vertex 40.3536 79.6464 0.2
      vertex 40.3536 79.6464 0
    endloop
  endfacet
  facet normal -0.707105 0.707109 0
    outer loop
      vertex 40.3536 79.6464 0.2
      vertex 20.9571 60.25 0
      vertex 20.9571 60.25 0.2
    endloop
  endfacet
  facet normal -0.707108 0.707106 0
    outer loop
      vertex 0.353553 39.6464 0
      vertex 19.75 59.0429 0.2
      vertex 19.75 59.0429 0
    endloop
  endfacet
  facet normal -0.707108 0.707106 0
    outer loop
      vertex 19.75 59.0429 0.2
      vertex 0.353553 39.6464 0
      vertex 0.353553 39.6464 0.2
    endloop
  endfacet
  facet normal -0.707106 -0.707108 0
    outer loop
      vertex 20.9571 19.75 0
      vertex 40.3536 0.353553 0.2
      vertex 20.9571 19.75 0.2
    endloop
  endfacet
  facet normal -0.707106 -0.707108 -0
    outer loop
      vertex 40.3536 0.353553 0.2
      vertex 20.9571 19.75 0
      vertex 40.3536 0.353553 0
    endloop
  endfacet
  facet normal -0.707448 -0.706765 0
    outer loop
      vertex 20.4571 20.25 0
      vertex 20.3536 20.3536 0.2
      vertex 20.3536 20.3536 0
    endloop
  endfacet
  facet normal -0.707448 -0.706765 0
    outer loop
      vertex 20.3536 20.3536 0.2
      vertex 20.4571 20.25 0
      vertex 20.4571 20.25 0.2
    endloop
  endfacet
  facet normal -0.70706 0.707154 0
    outer loop
      vertex 40.3536 0.353553 0
      vertex 40 0 0.2
      vertex 40.3536 0.353553 0.2
    endloop
  endfacet
  facet normal -0.70706 0.707154 0
    outer loop
      vertex 40 0 0.2
      vertex 40.3536 0.353553 0
      vertex 40 0 0
    endloop
  endfacet
  facet normal 0.707107 0.707107 0
    outer loop
      vertex 39.2929 0 0.2
      vertex 19.8232 19.4697 0
      vertex 19.8232 19.4697 0.2
    endloop
  endfacet
  facet normal 0.707107 0.707107 0
    outer loop
      vertex 19.8232 19.4697 0
      vertex 39.2929 0 0.2
      vertex 39.2929 0 0
    endloop
  endfacet
  facet normal 0.707107 -0.707107 0
    outer loop
      vertex 20.25 20.25 0.2
      vertex 20.3536 20.3536 0
      vertex 20.3536 20.3536 0.2
    endloop
  endfacet
  facet normal 0.707107 -0.707107 0
    outer loop
      vertex 20.3536 20.3536 0
      vertex 20.25 20.25 0.2
      vertex 20.25 20.25 0
    endloop
  endfacet
  facet normal 0 0 -1
    outer loop
      vertex 39.2929 0 0.2
      vertex 40.3536 0.353553 0.2
      vertex 40 0 0.2
    endloop
  endfacet
  facet normal 0 0 -1
    outer loop
      vertex 39.2929 0 0.2
      vertex 20.9571 19.75 0.2
      vertex 40.3536 0.353553 0.2
    endloop
  endfacet
  facet normal 0 0 -1
    outer loop
      vertex 19.8232 19.4697 0.2
      vertex 20.9571 19.75 0.2
      vertex 39.2929 0 0.2
    endloop
  endfacet
  facet normal -0 0 -1
    outer loop
      vertex 20.9571 19.75 0.2
      vertex 19.8232 19.4697 0.2
      vertex 20.1036 19.75 0.2
    endloop
  endfacet
  facet normal 0 -0 -1
    outer loop
      vertex 20.3536 20.3536 0.2
      vertex 20.4571 20.25 0.2
      vertex 20.25 20.25 0.2
    endloop
  endfacet
  facet normal -0.707107 -0.707107 0
    outer loop
      vertex 80 40.7071 0
      vertex 60.5303 60.1768 0.2
      vertex 60.5303 60.1768 0
    endloop
  endfacet
  facet normal -0.707107 -0.707107 0
    outer loop
      vertex 60.5303 60.1768 0.2
      vertex 80 40.7071 0
      vertex 80 40.7071 0.2
    endloop
  endfacet
  facet normal -0.707107 0.707107 0
    outer loop
      vertex 79.6464 39.6464 0
      vertex 80 40 0.2
      vertex 80 40 0
    endloop
  endfacet
  facet normal -0.707107 0.707107 0
    outer loop
      vertex 80 40 0.2
      vertex 79.6464 39.6464 0
      vertex 79.6464 39.6464 0.2
    endloop
  endfacet
  facet normal 0.707107 -0.707107 0
    outer loop
      vertex 59.6464 59.6464 0.2
      vertex 59.75 59.75 0
      vertex 59.75 59.75 0.2
    endloop
  endfacet
  facet normal 0.707107 -0.707107 0
    outer loop
      vertex 59.75 59.75 0
      vertex 59.6464 59.6464 0.2
      vertex 59.6464 59.6464 0
    endloop
  endfacet
  facet normal 0 0 -1
    outer loop
      vertex 79.6464 39.6464 0.2
      vertex 80 40.7071 0.2
      vertex 80 40 0.2
    endloop
  endfacet
  facet normal 0 0 -1
    outer loop
      vertex 60.25 59.0429 0.2
      vertex 80 40.7071 0.2
      vertex 79.6464 39.6464 0.2
    endloop
  endfacet
  facet normal 0 0 -1
    outer loop
      vertex 80 40.7071 0.2
      vertex 60.25 59.0429 0.2
      vertex 60.5303 60.1768 0.2
    endloop
  endfacet
  facet normal 0 0 -1
    outer loop
      vertex 60.5303 60.1768 0.2
      vertex 60.25 59.0429 0.2
      vertex 60.25 59.8964 0.2
    endloop
  endfacet
  facet normal 0 -0 -1
    outer loop
      vertex 59.75 59.75 0.2
      vertex 59.75 59.5429 0.2
      vertex 59.6464 59.6464 0.2
    endloop
  endfacet
  facet normal 0.707109 0.707105 0
    outer loop
      vertex 79.6464 39.6464 0.2
      vertex 60.25 59.0429 0
      vertex 60.25 59.0429 0.2
    endloop
  endfacet
  facet normal 0.707109 0.707105 0
    outer loop
      vertex 60.25 59.0429 0
      vertex 79.6464 39.6464 0.2
      vertex 79.6464 39.6464 0
    endloop
  endfacet
  facet normal 0.706765 0.707448 0
    outer loop
      vertex 59.75 59.5429 0.2
      vertex 59.6464 59.6464 0
      vertex 59.6464 59.6464 0.2
    endloop
  endfacet
  facet normal 0.706765 0.707448 0
    outer loop
      vertex 59.6464 59.6464 0
      vertex 59.75 59.5429 0.2
      vertex 59.75 59.5429 0
    endloop
  endfacet
  facet normal 0 0 0
    outer loop
      vertex 20 20 0.4
      vertex 20 20 0.2
      vertex 20 20 0
    endloop
  endfacet
  facet normal 0 -1 0
    outer loop
      vertex 19.75 60 0.2
      vertex 20 60 0.4
      vertex 19.75 60 0.4
    endloop
  endfacet
  facet normal 0 -1 -0
    outer loop
      vertex 20 60 0.4
      vertex 19.75 60 0.2
      vertex 20 60 0.2
    endloop
  endfacet
  facet normal -1 0 0
    outer loop
      vertex 20.25 59.0429 0
      vertex 20.25 20.25 0
      vertex 20.25 59.0429 0.2
    endloop
  endfacet
  facet normal -1 0 0
    outer loop
      vertex 20.25 59.0429 0.2
      vertex 20.25 59.75 0.4
      vertex 20.25 59.75 0.2
    endloop
  endfacet
  facet normal -1 0 0
    outer loop
      vertex 20.25 20.25 0.2
      vertex 20.25 59.0429 0.2
      vertex 20.25 20.25 0
    endloop
  endfacet
  facet normal -1 0 0
    outer loop
      vertex 20.25 20.25 0.4
      vertex 20.25 59.0429 0.2
      vertex 20.25 20.25 0.2
    endloop
  endfacet
  facet normal -1 0 0
    outer loop
      vertex 20.25 59.0429 0.2
      vertex 20.25 20.25 0.4
      vertex 20.25 59.75 0.4
    endloop
  endfacet
  facet normal 0 0 -1
    outer loop
      vertex 79.6464 0 0.4
      vertex 80 4.76836e-07 0.4
      vertex 80 0 0.4
    endloop
  endfacet
  facet normal -0 0 -1
    outer loop
      vertex 80 4.76836e-07 0.4
      vertex 79.6464 0 0.4
      vertex 80 0.353552 0.4
    endloop
  endfacet
  facet normal 0 0 -1
    outer loop
      vertex 79.6464 0 0.4
      vertex 60.25 20.1036 0.4
      vertex 80 0.353552 0.4
    endloop
  endfacet
  facet normal 0 0 -1
    outer loop
      vertex 59.75 20.25 0.4
      vertex 60.25 20.1036 0.4
      vertex 59.8964 19.75 0.4
    endloop
  endfacet
  facet normal 0 0 -1
    outer loop
      vertex 59.8964 19.75 0.4
      vertex 60.25 20.1036 0.4
      vertex 79.6464 0 0.4
    endloop
  endfacet
  facet normal 0 0 -1
    outer loop
      vertex 80 79.6464 0.4
      vertex 79.6464 80 0.4
      vertex 80 80 0.4
    endloop
  endfacet
  facet normal 0 0 -1
    outer loop
      vertex 60.25 59.8964 0.4
      vertex 79.6464 80 0.4
      vertex 80 79.6464 0.4
    endloop
  endfacet
  facet normal 0 0 -1
    outer loop
      vertex 60.25 59.8964 0.4
      vertex 59.8964 60.25 0.4
      vertex 79.6464 80 0.4
    endloop
  endfacet
  facet normal 0 0 -1
    outer loop
      vertex 60.25 20.1036 0.4
      vertex 59.75 20.25 0.4
      vertex 60.25 59.8964 0.4
    endloop
  endfacet
  facet normal 0 0 -1
    outer loop
      vertex 59.75 59.75 0.4
      vertex 60.25 59.8964 0.4
      vertex 59.75 20.25 0.4
    endloop
  endfacet
  facet normal 0 0 -1
    outer loop
      vertex 59.8964 19.75 0.4
      vertex 20.25 20.25 0.4
      vertex 59.75 20.25 0.4
    endloop
  endfacet
  facet normal 0 0 -1
    outer loop
      vertex 19.75 20.1036 0.4
      vertex 20.25 20.25 0.4
      vertex 20.1036 19.75 0.4
    endloop
  endfacet
  facet normal 0 0 -1
    outer loop
      vertex 20.1036 19.75 0.4
      vertex 20.25 20.25 0.4
      vertex 59.8964 19.75 0.4
    endloop
  endfacet
  facet normal 0 0 -1
    outer loop
      vertex 19.75 60 0.4
      vertex 20.25 59.75 0.4
      vertex 19.75 20.1036 0.4
    endloop
  endfacet
  facet normal 0 0 -1
    outer loop
      vertex 0.353552 0 0.4
      vertex 19.75 20.1036 0.4
      vertex 20.1036 19.75 0.4
    endloop
  endfacet
  facet normal 0 0 -1
    outer loop
      vertex 0 0.353552 0.4
      vertex 0.353552 0 0.4
      vertex 0 0 0.4
    endloop
  endfacet
  facet normal 0 0 -1
    outer loop
      vertex 0.353552 0 0.4
      vertex 0 0.353552 0.4
      vertex 19.75 20.1036 0.4
    endloop
  endfacet
  facet normal 0 0 -1
    outer loop
      vertex 20.25 59.75 0.4
      vertex 19.75 60 0.4
      vertex 20 60 0.4
    endloop
  endfacet
  facet normal -0 0 -1
    outer loop
      vertex 60.25 59.8964 0.4
      vertex 59.75 59.75 0.4
      vertex 59.8964 60.25 0.4
    endloop
  endfacet
  facet normal 0 0 -1
    outer loop
      vertex 20.25 59.75 0.4
      vertex 59.8964 60.25 0.4
      vertex 59.75 59.75 0.4
    endloop
  endfacet
  facet normal -0 0 -1
    outer loop
      vertex 20.25 20.25 0.4
      vertex 19.75 20.1036 0.4
      vertex 20.25 59.75 0.4
    endloop
  endfacet
  facet normal 0 0 -1
    outer loop
      vertex 20 60.25 0.4
      vertex 20.25 59.75 0.4
      vertex 20 60 0.4
    endloop
  endfacet
  facet normal 0 0 -1
    outer loop
      vertex 20.25 59.75 0.4
      vertex 20 60.25 0.4
      vertex 59.8964 60.25 0.4
    endloop
  endfacet
  facet normal 1 0 0
    outer loop
      vertex 19.75 60 0.4
      vertex 19.75 59.0429 0.2
      vertex 19.75 60 0.2
    endloop
  endfacet
  facet normal 1 -0 0
    outer loop
      vertex 19.75 20.1036 0.4
      vertex 19.75 59.0429 0.2
      vertex 19.75 60 0.4
    endloop
  endfacet
  facet normal 1 0 0
    outer loop
      vertex 19.75 20.1036 0.4
      vertex 19.75 59.0429 0
      vertex 19.75 59.0429 0.2
    endloop
  endfacet
  facet normal 1 0 0
    outer loop
      vertex 19.75 59.0429 0
      vertex 19.75 20.1036 0.4
      vertex 19.75 20.1036 0
    endloop
  endfacet
  facet normal 0 -1 0
    outer loop
      vertex 20.4571 20.25 0
      vertex 59.0429 20.25 0.2
      vertex 20.4571 20.25 0.2
    endloop
  endfacet
  facet normal 0 -1 -0
    outer loop
      vertex 59.0429 20.25 0.2
      vertex 20.4571 20.25 0
      vertex 59.0429 20.25 0
    endloop
  endfacet
  facet normal 0 -1 0
    outer loop
      vertex 20.4571 20.25 0.2
      vertex 20.25 20.25 0.4
      vertex 20.25 20.25 0.2
    endloop
  endfacet
  facet normal 0 -1 0
    outer loop
      vertex 59.0429 20.25 0.2
      vertex 20.25 20.25 0.4
      vertex 20.4571 20.25 0.2
    endloop
  endfacet
  facet normal 0 -1 0
    outer loop
      vertex 20.25 20.25 0.4
      vertex 59.0429 20.25 0.2
      vertex 59.75 20.25 0.4
    endloop
  endfacet
  facet normal 0 -1 -0
    outer loop
      vertex 59.75 20.25 0.4
      vertex 59.0429 20.25 0.2
      vertex 59.75 20.25 0.2
    endloop
  endfacet
  facet normal 0 1 -0
    outer loop
      vertex 59.5429 19.75 0
      vertex 20.9571 19.75 0.2
      vertex 59.5429 19.75 0.2
    endloop
  endfacet
  facet normal 0 1 0
    outer loop
      vertex 20.9571 19.75 0.2
      vertex 59.5429 19.75 0
      vertex 20.9571 19.75 0
    endloop
  endfacet
  facet normal 0 1 0
    outer loop
      vertex 59.5429 19.75 0.2
      vertex 59.8964 19.75 0.4
      vertex 59.75 19.75 0.2
    endloop
  endfacet
  facet normal 0 1 -0
    outer loop
      vertex 59.8964 19.75 0
      vertex 59.75 19.75 0.2
      vertex 59.8964 19.75 0.4
    endloop
  endfacet
  facet normal 0 1 0
    outer loop
      vertex 59.75 19.75 0.2
      vertex 59.8964 19.75 0
      vertex 59.75 19.75 0
    endloop
  endfacet
  facet normal 0 1 0
    outer loop
      vertex 20.9571 19.75 0.2
      vertex 59.8964 19.75 0.4
      vertex 59.5429 19.75 0.2
    endloop
  endfacet
  facet normal 0 1 0
    outer loop
      vertex 59.8964 19.75 0.4
      vertex 20.9571 19.75 0.2
      vertex 20.1036 19.75 0.4
    endloop
  endfacet
  facet normal 0 1 0
    outer loop
      vertex 20.1036 19.75 0.4
      vertex 20.9571 19.75 0.2
      vertex 20.1036 19.75 0.2
    endloop
  endfacet
  facet normal 1 0 0
    outer loop
      vertex 59.75 59.75 0.4
      vertex 59.75 59.5429 0.2
      vertex 59.75 59.75 0.2
    endloop
  endfacet
  facet normal 1 0 0
    outer loop
      vertex 59.75 59.5429 0.2
      vertex 59.75 20.9571 0.2
      vertex 59.75 59.5429 0
    endloop
  endfacet
  facet normal 1 0 0
    outer loop
      vertex 59.75 59.75 0.4
      vertex 59.75 20.9571 0.2
      vertex 59.75 59.5429 0.2
    endloop
  endfacet
  facet normal 1 -0 0
    outer loop
      vertex 59.75 20.25 0.4
      vertex 59.75 20.9571 0.2
      vertex 59.75 59.75 0.4
    endloop
  endfacet
  facet normal 1 0 0
    outer loop
      vertex 59.75 20.9571 0.2
      vertex 59.75 20.25 0.4
      vertex 59.75 20.25 0.2
    endloop
  endfacet
  facet normal 1 0 0
    outer loop
      vertex 59.75 59.5429 0
      vertex 59.75 20.9571 0.2
      vertex 59.75 20.9571 0
    endloop
  endfacet
  facet normal -1 0 0
    outer loop
      vertex 60.25 20.25 0
      vertex 60.25 20.1036 0
      vertex 60.25 20.25 0.2
    endloop
  endfacet
  facet normal -1 0 0
    outer loop
      vertex 60.25 59.0429 0
      vertex 60.25 20.4571 0
      vertex 60.25 59.0429 0.2
    endloop
  endfacet
  facet normal -1 0 0
    outer loop
      vertex 60.25 59.0429 0.2
      vertex 60.25 59.8964 0.4
      vertex 60.25 59.8964 0.2
    endloop
  endfacet
  facet normal -1 0 0
    outer loop
      vertex 60.25 20.4571 0.2
      vertex 60.25 59.0429 0.2
      vertex 60.25 20.4571 0
    endloop
  endfacet
  facet normal -1 0 0
    outer loop
      vertex 60.25 20.1036 0.4
      vertex 60.25 59.0429 0.2
      vertex 60.25 20.4571 0.2
    endloop
  endfacet
  facet normal -1 0 0
    outer loop
      vertex 60.25 20.1036 0.4
      vertex 60.25 20.4571 0.2
      vertex 60.25 20.25 0.2
    endloop
  endfacet
  facet normal -1 0 0
    outer loop
      vertex 60.25 59.0429 0.2
      vertex 60.25 20.1036 0.4
      vertex 60.25 59.8964 0.4
    endloop
  endfacet
  facet normal -1 0 0
    outer loop
      vertex 60.25 20.1036 0.4
      vertex 60.25 20.25 0.2
      vertex 60.25 20.1036 0
    endloop
  endfacet
  facet normal 0 -1 0
    outer loop
      vertex 20.9571 60.25 0.2
      vertex 20 60.25 0.4
      vertex 20 60.25 0.2
    endloop
  endfacet
  facet normal 0 -1 0
    outer loop
      vertex 20 60.25 0.4
      vertex 20.9571 60.25 0.2
      vertex 59.8964 60.25 0.4
    endloop
  endfacet
  facet normal 0 -1 0
    outer loop
      vertex 20.9571 60.25 0
      vertex 59.8964 60.25 0.4
      vertex 20.9571 60.25 0.2
    endloop
  endfacet
  facet normal 0 -1 -0
    outer loop
      vertex 59.8964 60.25 0.4
      vertex 20.9571 60.25 0
      vertex 59.8964 60.25 0
    endloop
  endfacet
  facet normal 1 -0 0
    outer loop
      vertex 20 60 0.4
      vertex 20 60.25 0.2
      vertex 20 60.25 0.4
    endloop
  endfacet
  facet normal 1 0 0
    outer loop
      vertex 20 60.25 0.2
      vertex 20 60 0.4
      vertex 20 60 0.2
    endloop
  endfacet
  facet normal 0 1 -0
    outer loop
      vertex 59.75 59.75 0
      vertex 20.9571 59.75 0.2
      vertex 59.75 59.75 0.2
    endloop
  endfacet
  facet normal 0 1 0
    outer loop
      vertex 20.9571 59.75 0.2
      vertex 59.75 59.75 0
      vertex 20.9571 59.75 0
    endloop
  endfacet
  facet normal 0 1 0
    outer loop
      vertex 20.9571 59.75 0.2
      vertex 59.75 59.75 0.4
      vertex 59.75 59.75 0.2
    endloop
  endfacet
  facet normal 0 1 0
    outer loop
      vertex 59.75 59.75 0.4
      vertex 20.9571 59.75 0.2
      vertex 20.25 59.75 0.4
    endloop
  endfacet
  facet normal 0 1 0
    outer loop
      vertex 20.25 59.75 0.4
      vertex 20.9571 59.75 0.2
      vertex 20.25 59.75 0.2
    endloop
  endfacet
  facet normal 0 0 0
    outer loop
      vertex 20 20 0
      vertex 20 20 0.2
      vertex 20 20 0.4
    endloop
  endfacet
  facet normal 0.707108 -0.707106 0
    outer loop
      vertex 0 0.353552 0.4
      vertex 19.75 20.1036 0
      vertex 19.75 20.1036 0.4
    endloop
  endfacet
  facet normal 0.707108 -0.707106 0
    outer loop
      vertex 19.75 20.1036 0
      vertex 0 0.353552 0.4
      vertex 0 0.353552 0
    endloop
  endfacet
  facet normal -0.707108 0.707106 0
    outer loop
      vertex 19.8232 19.4697 0
      vertex 0.353552 0 0
      vertex 19.8232 19.4697 0.2
    endloop
  endfacet
  facet normal -0.706981 0.707233 0
    outer loop
      vertex 19.8232 19.4697 0.2
      vertex 20.1036 19.75 0.4
      vertex 20.1036 19.75 0.2
    endloop
  endfacet
  facet normal -0.707108 0.707106 0
    outer loop
      vertex 0.353552 0 0.4
      vertex 19.8232 19.4697 0.2
      vertex 0.353552 0 0
    endloop
  endfacet
  facet normal -0.707106 0.707108 0.000351144
    outer loop
      vertex 19.8232 19.4697 0.2
      vertex 0.353552 0 0.4
      vertex 20.1036 19.75 0.4
    endloop
  endfacet
  facet normal 0.707107 -0.707107 0
    outer loop
      vertex 59.8964 60.25 0.4
      vertex 79.6464 80 0
      vertex 79.6464 80 0.4
    endloop
  endfacet
  facet normal 0.707107 -0.707107 0
    outer loop
      vertex 79.6464 80 0
      vertex 59.8964 60.25 0.4
      vertex 59.8964 60.25 0
    endloop
  endfacet
  facet normal -0.707105 0.707109 0
    outer loop
      vertex 60.5303 60.1768 0.2
      vertex 80 79.6464 0
      vertex 60.5303 60.1768 0
    endloop
  endfacet
  facet normal -0.707105 0.707109 0
    outer loop
      vertex 80 79.6464 0
      vertex 60.5303 60.1768 0.2
      vertex 80 79.6464 0.4
    endloop
  endfacet
  facet normal -0.707233 0.706981 0
    outer loop
      vertex 60.25 59.8964 0.4
      vertex 60.5303 60.1768 0.2
      vertex 60.25 59.8964 0.2
    endloop
  endfacet
  facet normal -0.707107 0.707107 0.000353553
    outer loop
      vertex 60.5303 60.1768 0.2
      vertex 60.25 59.8964 0.4
      vertex 80 79.6464 0.4
    endloop
  endfacet
  facet normal -0.707108 -0.707106 0
    outer loop
      vertex 80 0.353552 0
      vertex 60.25 20.1036 0.4
      vertex 60.25 20.1036 0
    endloop
  endfacet
  facet normal -0.707108 -0.707106 0
    outer loop
      vertex 60.25 20.1036 0.4
      vertex 80 0.353552 0
      vertex 80 0.353552 0.4
    endloop
  endfacet
  facet normal -1 0 0
    outer loop
      vertex 80 0 0
      vertex 80 4.76836e-07 0.4
      vertex 80 4.76836e-07 0
    endloop
  endfacet
  facet normal -1 -0 0
    outer loop
      vertex 80 4.76836e-07 0.4
      vertex 80 0 0
      vertex 80 0 0.4
    endloop
  endfacet
  facet normal 0.707107 0.707107 0
    outer loop
      vertex 79.6464 0 0.4
      vertex 59.8964 19.75 0
      vertex 59.8964 19.75 0.4
    endloop
  endfacet
  facet normal 0.707107 0.707107 0
    outer loop
      vertex 59.8964 19.75 0
      vertex 79.6464 0 0.4
      vertex 79.6464 0 0
    endloop
  endfacet
  facet normal 0 -1 0
    outer loop
      vertex 19.5 60 1
      vertex 19.6464 60 1.2
      vertex 19.5 60 1.2
    endloop
  endfacet
  facet normal 0 -1 -0
    outer loop
      vertex 19.6464 60 1.2
      vertex 19.5 60 1
      vertex 19.6464 60 1
    endloop
  endfacet
  facet normal -1 0 0
    outer loop
      vertex 20.5 20.5 1
      vertex 20.5 59.1464 1.2
      vertex 20.5 59.1464 1
    endloop
  endfacet
  facet normal -1 -0 0
    outer loop
      vertex 20.5 59.1464 1.2
      vertex 20.5 20.5 1
      vertex 20.5 20.5 1.2
    endloop
  endfacet
  facet normal -0 0 1
    outer loop
      vertex 20 60.5 1
      vertex 20 60.3536 1
      vertex 20.1464 60.5 1
    endloop
  endfacet
  facet normal -0 0 1
    outer loop
      vertex 19.5 59.1464 1
      vertex 20.5 20.5 1
      vertex 20.5 59.1464 1
    endloop
  endfacet
  facet normal 0 0 1
    outer loop
      vertex 19.5 59.1464 1
      vertex 20.5 59.1464 1
      vertex 20 59.6464 1
    endloop
  endfacet
  facet normal 0 0 1
    outer loop
      vertex 20.5 20.5 1
      vertex 19.5 59.1464 1
      vertex 19.5 20.2071 1
    endloop
  endfacet
  facet normal 0 0 1
    outer loop
      vertex 20.5 20.5 1
      vertex 19.5 20.2071 1
      vertex 20.1768 20.1768 1
    endloop
  endfacet
  facet normal 0 0 1
    outer loop
      vertex 20.1768 20.1768 1
      vertex 19.5 20.2071 1
      vertex 20 20 1
    endloop
  endfacet
  facet normal -0 0 1
    outer loop
      vertex 20.8536 60.5 1
      vertex 59.5 59.5 1
      vertex 59.7929 60.5 1
    endloop
  endfacet
  facet normal 0 0 1
    outer loop
      vertex 20.8536 60.5 1
      vertex 20.8536 59.5 1
      vertex 59.5 59.5 1
    endloop
  endfacet
  facet normal 0 -0 1
    outer loop
      vertex 20.8536 59.5 1
      vertex 20.8536 60.5 1
      vertex 20.3536 60 1
    endloop
  endfacet
  facet normal -0 0 1
    outer loop
      vertex 79.2929 80 1
      vertex 80 79.2929 1
      vertex 80 80 1
    endloop
  endfacet
  facet normal 0 0 1
    outer loop
      vertex 60.1768 60.1768 1
      vertex 80 79.2929 1
      vertex 79.2929 80 1
    endloop
  endfacet
  facet normal 0 0 1
    outer loop
      vertex 80 79.2929 1
      vertex 60.1768 60.1768 1
      vertex 60.5303 59.8232 1
    endloop
  endfacet
  facet normal -0 0 1
    outer loop
      vertex 59.7929 60.5 1
      vertex 60.1768 60.1768 1
      vertex 79.2929 80 1
    endloop
  endfacet
  facet normal 0 0 1
    outer loop
      vertex 60.1768 60.1768 1
      vertex 59.7929 60.5 1
      vertex 59.8232 59.8232 1
    endloop
  endfacet
  facet normal -0 0 1
    outer loop
      vertex 59.5 20.8536 1
      vertex 60.5 20.2071 1
      vertex 60.5 59.1464 1
    endloop
  endfacet
  facet normal -0 0 1
    outer loop
      vertex 59.5 59.5 1
      vertex 60.5 59.1464 1
      vertex 59.8232 59.8232 1
    endloop
  endfacet
  facet normal 0 0 1
    outer loop
      vertex 59.5 59.5 1
      vertex 59.8232 59.8232 1
      vertex 59.7929 60.5 1
    endloop
  endfacet
  facet normal 0 0 1
    outer loop
      vertex 59.5 20.8536 1
      vertex 60.5 59.1464 1
      vertex 59.5 59.5 1
    endloop
  endfacet
  facet normal 0 0 1
    outer loop
      vertex 60.5 20.2071 1
      vertex 59.5 20.8536 1
      vertex 60.1768 20.1768 1
    endloop
  endfacet
  facet normal 0 0 1
    outer loop
      vertex 79.2929 0 1
      vertex 80 4.76837e-07 1
      vertex 80 0.707106 1
    endloop
  endfacet
  facet normal 0 0 1
    outer loop
      vertex 80 4.76837e-07 1
      vertex 79.2929 0 1
      vertex 80 0 1
    endloop
  endfacet
  facet normal 0 0 1
    outer loop
      vertex 60.5 20.2071 1
      vertex 79.2929 0 1
      vertex 80 0.707106 1
    endloop
  endfacet
  facet normal 0 0 1
    outer loop
      vertex 59.7929 19.5 1
      vertex 60.5 20.2071 1
      vertex 60.1768 20.1768 1
    endloop
  endfacet
  facet normal 0 0 1
    outer loop
      vertex 59.7929 19.5 1
      vertex 60.1768 20.1768 1
      vertex 59.8232 19.8232 1
    endloop
  endfacet
  facet normal 0 0 1
    outer loop
      vertex 60.5 20.2071 1
      vertex 59.7929 19.5 1
      vertex 79.2929 0 1
    endloop
  endfacet
  facet normal 0 0 1
    outer loop
      vertex 59.1464 20.5 1
      vertex 59.7929 19.5 1
      vertex 59.8232 19.8232 1
    endloop
  endfacet
  facet normal 0 0 1
    outer loop
      vertex 59.1464 20.5 1
      vertex 20.8536 19.5 1
      vertex 59.7929 19.5 1
    endloop
  endfacet
  facet normal -0 0 1
    outer loop
      vertex 20.5 20.5 1
      vertex 20.8536 19.5 1
      vertex 59.1464 20.5 1
    endloop
  endfacet
  facet normal 0 0 1
    outer loop
      vertex 20.8536 19.5 1
      vertex 20.5 20.5 1
      vertex 20.1768 20.1768 1
    endloop
  endfacet
  facet normal 0 0 1
    outer loop
      vertex 20 20 1
      vertex 19.5 20.2071 1
      vertex 19.8232 19.8232 1
    endloop
  endfacet
  facet normal 0 0 1
    outer loop
      vertex 19.8232 19.8232 1
      vertex 0.707106 0 1
      vertex 20.1768 19.4697 1
    endloop
  endfacet
  facet normal 0 0 1
    outer loop
      vertex 0 0.707106 1
      vertex 19.8232 19.8232 1
      vertex 19.5 20.2071 1
    endloop
  endfacet
  facet normal 0 0 1
    outer loop
      vertex 19.8232 19.8232 1
      vertex 0 0.707106 1
      vertex 0.707106 0 1
    endloop
  endfacet
  facet normal 0 0 1
    outer loop
      vertex 0.707106 0 1
      vertex 0 0.707106 1
      vertex 0 0 1
    endloop
  endfacet
  facet normal 0 0 1
    outer loop
      vertex 19.5 59.8536 1
      vertex 19.6464 60 1
      vertex 19.5 60 1
    endloop
  endfacet
  facet normal 1 -0 0
    outer loop
      vertex 19.5 59.8536 1.2
      vertex 19.5 60 1
      vertex 19.5 60 1.2
    endloop
  endfacet
  facet normal 1 0 0
    outer loop
      vertex 19.5 60 1
      vertex 19.5 59.8536 1.2
      vertex 19.5 59.8536 1
    endloop
  endfacet
  facet normal 1 -0 0
    outer loop
      vertex 19.5 20.2071 1.2
      vertex 19.5 59.1464 1
      vertex 19.5 59.1464 1.2
    endloop
  endfacet
  facet normal 1 0 0
    outer loop
      vertex 19.5 59.1464 1
      vertex 19.5 20.2071 1.2
      vertex 19.5 20.2071 1
    endloop
  endfacet
  facet normal 0 -1 0
    outer loop
      vertex 20.5 20.5 1
      vertex 59.1464 20.5 1.2
      vertex 20.5 20.5 1.2
    endloop
  endfacet
  facet normal 0 -1 -0
    outer loop
      vertex 59.1464 20.5 1.2
      vertex 20.5 20.5 1
      vertex 59.1464 20.5 1
    endloop
  endfacet
  facet normal 0 1 -0
    outer loop
      vertex 59.7929 19.5 1
      vertex 20.8536 19.5 1.2
      vertex 59.7929 19.5 1.2
    endloop
  endfacet
  facet normal 0 1 0
    outer loop
      vertex 20.8536 19.5 1.2
      vertex 59.7929 19.5 1
      vertex 20.8536 19.5 1
    endloop
  endfacet
  facet normal 1 -0 0
    outer loop
      vertex 59.5 20.8536 1.2
      vertex 59.5 59.5 1
      vertex 59.5 59.5 1.2
    endloop
  endfacet
  facet normal 1 0 0
    outer loop
      vertex 59.5 59.5 1
      vertex 59.5 20.8536 1.2
      vertex 59.5 20.8536 1
    endloop
  endfacet
  facet normal -1 0 0
    outer loop
      vertex 60.5 20.2071 1
      vertex 60.5 59.1464 1.2
      vertex 60.5 59.1464 1
    endloop
  endfacet
  facet normal -1 -0 0
    outer loop
      vertex 60.5 59.1464 1.2
      vertex 60.5 20.2071 1
      vertex 60.5 20.2071 1.2
    endloop
  endfacet
  facet normal 0 -1 0
    outer loop
      vertex 20 60.5 1
      vertex 20.1464 60.5 1.2
      vertex 20 60.5 1.2
    endloop
  endfacet
  facet normal 0 -1 -0
    outer loop
      vertex 20.1464 60.5 1.2
      vertex 20 60.5 1
      vertex 20.1464 60.5 1
    endloop
  endfacet
  facet normal 0 -1 0
    outer loop
      vertex 20.8536 60.5 1
      vertex 59.7929 60.5 1.2
      vertex 20.8536 60.5 1.2
    endloop
  endfacet
  facet normal 0 -1 -0
    outer loop
      vertex 59.7929 60.5 1.2
      vertex 20.8536 60.5 1
      vertex 59.7929 60.5 1
    endloop
  endfacet
  facet normal 1 -0 0
    outer loop
      vertex 20 60.3536 1.2
      vertex 20 60.5 1
      vertex 20 60.5 1.2
    endloop
  endfacet
  facet normal 1 0 0
    outer loop
      vertex 20 60.5 1
      vertex 20 60.3536 1.2
      vertex 20 60.3536 1
    endloop
  endfacet
  facet normal 0 1 -0
    outer loop
      vertex 59.5 59.5 1
      vertex 20.8536 59.5 1.2
      vertex 59.5 59.5 1.2
    endloop
  endfacet
  facet normal 0 1 0
    outer loop
      vertex 20.8536 59.5 1.2
      vertex 59.5 59.5 1
      vertex 20.8536 59.5 1
    endloop
  endfacet
  facet normal 0.707107 -0.707107 0
    outer loop
      vertex 0 0.707106 1.2
      vertex 19.5 20.2071 1
      vertex 19.5 20.2071 1.2
    endloop
  endfacet
  facet normal 0.707107 -0.707107 0
    outer loop
      vertex 19.5 20.2071 1
      vertex 0 0.707106 1.2
      vertex 0 0.707106 1
    endloop
  endfacet
  facet normal -0.707107 0.707107 0
    outer loop
      vertex 20.1768 19.4697 1
      vertex 0.707106 0 1.2
      vertex 20.1768 19.4697 1.2
    endloop
  endfacet
  facet normal -0.707107 0.707107 0
    outer loop
      vertex 0.707106 0 1.2
      vertex 20.1768 19.4697 1
      vertex 0.707106 0 1
    endloop
  endfacet
  facet normal 0.707107 -0.707107 0
    outer loop
      vertex 59.7929 60.5 1.2
      vertex 79.2929 80 1
      vertex 79.2929 80 1.2
    endloop
  endfacet
  facet normal 0.707107 -0.707107 0
    outer loop
      vertex 79.2929 80 1
      vertex 59.7929 60.5 1.2
      vertex 59.7929 60.5 1
    endloop
  endfacet
  facet normal -0.707107 0.707107 0
    outer loop
      vertex 60.5303 59.8232 1
      vertex 80 79.2929 1.2
      vertex 80 79.2929 1
    endloop
  endfacet
  facet normal -0.707107 0.707107 0
    outer loop
      vertex 80 79.2929 1.2
      vertex 60.5303 59.8232 1
      vertex 60.5303 59.8232 1.2
    endloop
  endfacet
  facet normal -0.707107 -0.707107 0
    outer loop
      vertex 80 0.707106 1
      vertex 60.5 20.2071 1.2
      vertex 60.5 20.2071 1
    endloop
  endfacet
  facet normal -0.707107 -0.707107 0
    outer loop
      vertex 60.5 20.2071 1.2
      vertex 80 0.707106 1
      vertex 80 0.707106 1.2
    endloop
  endfacet
  facet normal -1 0 0
    outer loop
      vertex 80 0 1
      vertex 80 4.76837e-07 1.2
      vertex 80 4.76837e-07 1
    endloop
  endfacet
  facet normal -1 -0 0
    outer loop
      vertex 80 4.76837e-07 1.2
      vertex 80 0 1
      vertex 80 0 1.2
    endloop
  endfacet
  facet normal 0.707107 0.707107 0
    outer loop
      vertex 79.2929 0 1.2
      vertex 59.7929 19.5 1
      vertex 59.7929 19.5 1.2
    endloop
  endfacet
  facet normal 0.707107 0.707107 0
    outer loop
      vertex 59.7929 19.5 1
      vertex 79.2929 0 1.2
      vertex 79.2929 0 1
    endloop
  endfacet
  facet normal 1 -0 0
    outer loop
      vertex 80 0 1.2
      vertex 80 4.76837e-07 1
      vertex 80 4.76837e-07 1.2
    endloop
  endfacet
  facet normal 1 0 0
    outer loop
      vertex 80 4.76837e-07 1
      vertex 80 0 1.2
      vertex 80 4.76836e-07 0.4
    endloop
  endfacet
  facet normal 1 0 0
    outer loop
      vertex 80 0 0
      vertex 80 4.76836e-07 0.4
      vertex 80 0 1.2
    endloop
  endfacet
  facet normal 1 0 0
    outer loop
      vertex 80 4.76836e-07 0.4
      vertex 80 0 0
      vertex 80 4.76836e-07 0
    endloop
  endfacet
  facet normal 1 -0 0
    outer loop
      vertex 80 4.76837e-07 1
      vertex 80 0.353552 0.4
      vertex 80 0.707106 1
    endloop
  endfacet
  facet normal 1 0 0
    outer loop
      vertex 80 0.353552 0.4
      vertex 80 4.76837e-07 1
      vertex 80 4.76836e-07 0.4
    endloop
  endfacet
  facet normal 1 -0 0
    outer loop
      vertex 80 0.707106 1
      vertex 80 40 0.8
      vertex 80 40 1.2
    endloop
  endfacet
  facet normal 1 0 0
    outer loop
      vertex 80 40 0.8
      vertex 80 0.707106 1
      vertex 80 40 0.2
    endloop
  endfacet
  facet normal 1 0 0
    outer loop
      vertex 80 0.707106 1
      vertex 80 40 1.2
      vertex 80 0.707106 1.2
    endloop
  endfacet
  facet normal 1 0 0
    outer loop
      vertex 80 40 0.2
      vertex 80 0.707106 1
      vertex 80 40 0
    endloop
  endfacet
  facet normal 1 0 0
    outer loop
      vertex 80 0.353552 0
      vertex 80 0.707106 1
      vertex 80 0.353552 0.4
    endloop
  endfacet
  facet normal 1 0 0
    outer loop
      vertex 80 0.707106 1
      vertex 80 0.353552 0
      vertex 80 40 0
    endloop
  endfacet
  facet normal 1 0 0
    outer loop
      vertex 80 79.2929 1.2
      vertex 80 40.7071 0.2
      vertex 80 79.2929 1
    endloop
  endfacet
  facet normal 1 -0 0
    outer loop
      vertex 80 40.3536 1.2
      vertex 80 40.7071 0.2
      vertex 80 79.2929 1.2
    endloop
  endfacet
  facet normal 1 -0 0
    outer loop
      vertex 80 40.3536 0.8
      vertex 80 40.7071 0.2
      vertex 80 40.3536 1.2
    endloop
  endfacet
  facet normal 1 0 0
    outer loop
      vertex 80 40 0.2
      vertex 80 40.3536 0.8
      vertex 80 40 0.8
    endloop
  endfacet
  facet normal 1 0 0
    outer loop
      vertex 80 40.3536 0.8
      vertex 80 40 0.2
      vertex 80 40.7071 0.2
    endloop
  endfacet
  facet normal 1 0 0
    outer loop
      vertex 80 80 1
      vertex 80 79.6464 0.4
      vertex 80 80 0.4
    endloop
  endfacet
  facet normal 1 -0 0
    outer loop
      vertex 80 79.2929 1
      vertex 80 79.6464 0.4
      vertex 80 80 1
    endloop
  endfacet
  facet normal 1 0 0
    outer loop
      vertex 80 79.2929 1
      vertex 80 79.6464 0
      vertex 80 79.6464 0.4
    endloop
  endfacet
  facet normal 1 0 0
    outer loop
      vertex 80 40.7071 0
      vertex 80 79.2929 1
      vertex 80 40.7071 0.2
    endloop
  endfacet
  facet normal 1 0 0
    outer loop
      vertex 80 79.2929 1
      vertex 80 40.7071 0
      vertex 80 79.6464 0
    endloop
  endfacet
  facet normal 0 -0 0
    outer loop
      vertex 80 80 0.4
      vertex 80 80 0
      vertex 80 80 1.2
    endloop
  endfacet
  facet normal 0 -0 0
    outer loop
      vertex 80 80 1
      vertex 80 80 0.4
      vertex 80 80 1.2
    endloop
  endfacet
  facet normal 0 0 1
    outer loop
      vertex 0 79.6464 1.2
      vertex 19.5 60 1.2
      vertex 19.6464 60 1.2
    endloop
  endfacet
  facet normal 0 0 1
    outer loop
      vertex 0 79.6464 1.2
      vertex 19.5 59.8536 1.2
      vertex 19.5 60 1.2
    endloop
  endfacet
  facet normal 0 0 1
    outer loop
      vertex 19.5 59.8536 1.2
      vertex 0 79.6464 1.2
      vertex 0 40.3536 1.2
    endloop
  endfacet
  facet normal -0 0 1
    outer loop
      vertex 0.176776 39.8232 1.2
      vertex 19.5 20.2071 1.2
      vertex 19.5 59.1464 1.2
    endloop
  endfacet
  facet normal 0 0 1
    outer loop
      vertex 0 0.707106 1.2
      vertex 0.176776 39.8232 1.2
      vertex 0 40 1.2
    endloop
  endfacet
  facet normal 0 0 1
    outer loop
      vertex 0.176776 39.8232 1.2
      vertex 0 0.707106 1.2
      vertex 19.5 20.2071 1.2
    endloop
  endfacet
  facet normal 0 0 1
    outer loop
      vertex 39.6464 80 1.2
      vertex 20 60.5 1.2
      vertex 20.1464 60.5 1.2
    endloop
  endfacet
  facet normal 0 0 1
    outer loop
      vertex 20 60.5 1.2
      vertex 0.353552 80 1.2
      vertex 20 60.3536 1.2
    endloop
  endfacet
  facet normal -0 0 1
    outer loop
      vertex 0.353552 80 1.2
      vertex 20 60.5 1.2
      vertex 39.6464 80 1.2
    endloop
  endfacet
  facet normal 0 0 1
    outer loop
      vertex 79.2929 80 1.2
      vertex 40.1768 79.8232 1.2
      vertex 59.7929 60.5 1.2
    endloop
  endfacet
  facet normal 0 -0 1
    outer loop
      vertex 40.1768 79.8232 1.2
      vertex 79.2929 80 1.2
      vertex 40 80 1.2
    endloop
  endfacet
  facet normal 0 0 1
    outer loop
      vertex 59.7929 60.5 1.2
      vertex 40.1768 79.8232 1.2
      vertex 20.8536 60.5 1.2
    endloop
  endfacet
  facet normal 0 0 1
    outer loop
      vertex 20.1768 19.4697 1.2
      vertex 0.707106 0 1.2
      vertex 39.6464 0 1.2
    endloop
  endfacet
  facet normal 0 0 1
    outer loop
      vertex 59.7929 19.5 1.2
      vertex 20.8536 19.5 1.2
      vertex 40.1768 0.176776 1.2
    endloop
  endfacet
  facet normal -0 0 1
    outer loop
      vertex 40.1768 0.176776 1.2
      vertex 79.2929 0 1.2
      vertex 59.7929 19.5 1.2
    endloop
  endfacet
  facet normal 0 0 1
    outer loop
      vertex 79.2929 0 1.2
      vertex 40.1768 0.176776 1.2
      vertex 40 0 1.2
    endloop
  endfacet
  facet normal 0 0 1
    outer loop
      vertex 80 79.2929 1.2
      vertex 60.5303 59.8232 1.2
      vertex 80 40.3536 1.2
    endloop
  endfacet
  facet normal -0 0 1
    outer loop
      vertex 79.8232 39.8232 1.2
      vertex 80 0.707106 1.2
      vertex 80 40 1.2
    endloop
  endfacet
  facet normal 0 0 1
    outer loop
      vertex 60.5 20.2071 1.2
      vertex 79.8232 39.8232 1.2
      vertex 60.5 59.1464 1.2
    endloop
  endfacet
  facet normal 0 0 1
    outer loop
      vertex 79.8232 39.8232 1.2
      vertex 60.5 20.2071 1.2
      vertex 80 0.707106 1.2
    endloop
  endfacet
  facet normal 0 0 1
    outer loop
      vertex 20.5 59.1464 1.2
      vertex 20.5 20.5 1.2
      vertex 59.1464 20.5 1.2
    endloop
  endfacet
  facet normal 0 0 1
    outer loop
      vertex 59.5 59.5 1.2
      vertex 20.8536 59.5 1.2
      vertex 59.5 20.8536 1.2
    endloop
  endfacet
  facet normal -0 0 -1
    outer loop
      vertex 19.2929 60 0
      vertex 0 40.7071 0
      vertex 0 79.2929 0
    endloop
  endfacet
  facet normal 0 0 -1
    outer loop
      vertex 19.75 20.1036 0
      vertex 0.353553 39.6464 0
      vertex 19.75 59.0429 0
    endloop
  endfacet
  facet normal 0 0 -1
    outer loop
      vertex 0 0.353552 0
      vertex 0.353553 39.6464 0
      vertex 19.75 20.1036 0
    endloop
  endfacet
  facet normal -0 0 -1
    outer loop
      vertex 0.353553 39.6464 0
      vertex 0 0.353552 0
      vertex 0 40 0
    endloop
  endfacet
  facet normal 0 0 -1
    outer loop
      vertex 39.2929 0 0
      vertex 0.353552 0 0
      vertex 19.8232 19.4697 0
    endloop
  endfacet
  facet normal 0 0 -1
    outer loop
      vertex 59.6464 19.6464 0
      vertex 59.8964 19.75 0
      vertex 79.6464 0 0
    endloop
  endfacet
  facet normal -0 0 -1
    outer loop
      vertex 59.8964 19.75 0
      vertex 59.6464 19.6464 0
      vertex 59.75 19.75 0
    endloop
  endfacet
  facet normal -0 0 -1
    outer loop
      vertex 59.6464 19.6464 0
      vertex 40.3536 0.353553 0
      vertex 59.5429 19.75 0
    endloop
  endfacet
  facet normal 0 0 -1
    outer loop
      vertex 79.6464 0 0
      vertex 40.3536 0.353553 0
      vertex 59.6464 19.6464 0
    endloop
  endfacet
  facet normal 0 -0 -1
    outer loop
      vertex 40.3536 0.353553 0
      vertex 79.6464 0 0
      vertex 40 0 0
    endloop
  endfacet
  facet normal -0 0 -1
    outer loop
      vertex 59.5429 19.75 0
      vertex 40.3536 0.353553 0
      vertex 20.9571 19.75 0
    endloop
  endfacet
  facet normal 0 0 -1
    outer loop
      vertex 20 60.7071 0
      vertex 0.707106 80 0
      vertex 39.2929 80 0
    endloop
  endfacet
  facet normal 0 0 -1
    outer loop
      vertex 59.8964 60.25 0
      vertex 20.9571 60.25 0
      vertex 40.3536 79.6464 0
    endloop
  endfacet
  facet normal 0 0 -1
    outer loop
      vertex 40.3536 79.6464 0
      vertex 79.6464 80 0
      vertex 59.8964 60.25 0
    endloop
  endfacet
  facet normal -0 0 -1
    outer loop
      vertex 79.6464 80 0
      vertex 40.3536 79.6464 0
      vertex 40 80 0
    endloop
  endfacet
  facet normal 0 0 -1
    outer loop
      vertex 80 40.7071 0
      vertex 60.5303 60.1768 0
      vertex 80 79.6464 0
    endloop
  endfacet
  facet normal 0 0 -1
    outer loop
      vertex 80 0.353552 0
      vertex 79.6464 39.6464 0
      vertex 80 40 0
    endloop
  endfacet
  facet normal 0 0 -1
    outer loop
      vertex 80 0.353552 0
      vertex 60.3536 20.3536 0
      vertex 79.6464 39.6464 0
    endloop
  endfacet
  facet normal 0 0 -1
    outer loop
      vertex 60.25 20.1036 0
      vertex 60.3536 20.3536 0
      vertex 80 0.353552 0
    endloop
  endfacet
  facet normal 0 0 -1
    outer loop
      vertex 60.3536 20.3536 0
      vertex 60.25 20.1036 0
      vertex 60.25 20.25 0
    endloop
  endfacet
  facet normal 0 0 -1
    outer loop
      vertex 60.25 20.4571 0
      vertex 79.6464 39.6464 0
      vertex 60.3536 20.3536 0
    endloop
  endfacet
  facet normal -0 0 -1
    outer loop
      vertex 79.6464 39.6464 0
      vertex 60.25 20.4571 0
      vertex 60.25 59.0429 0
    endloop
  endfacet
  facet normal 0 0 -1
    outer loop
      vertex 20.3536 20.3536 0
      vertex 59.0429 20.25 0
      vertex 20.4571 20.25 0
    endloop
  endfacet
  facet normal 0 0 -1
    outer loop
      vertex 20.3536 20.3536 0
      vertex 20.25 59.0429 0
      vertex 59.0429 20.25 0
    endloop
  endfacet
  facet normal 0 0 -1
    outer loop
      vertex 20.25 59.0429 0
      vertex 20.3536 20.3536 0
      vertex 20.25 20.25 0
    endloop
  endfacet
  facet normal 0 0 -1
    outer loop
      vertex 59.75 20.9571 0
      vertex 59.6464 59.6464 0
      vertex 59.75 59.5429 0
    endloop
  endfacet
  facet normal -0 -0 -1
    outer loop
      vertex 59.6464 59.6464 0
      vertex 59.75 20.9571 0
      vertex 20.9571 59.75 0
    endloop
  endfacet
  facet normal -0 0 -1
    outer loop
      vertex 59.75 59.75 0
      vertex 59.6464 59.6464 0
      vertex 20.9571 59.75 0
    endloop
  endfacet
  facet normal -1 0 0
    outer loop
      vertex 0 79.2929 0
      vertex 0 40.7071 0
      vertex 0 79.2929 0.2
    endloop
  endfacet
  facet normal -1 0 0
    outer loop
      vertex 0 80 0.2
      vertex 0 79.6464 0.8
      vertex 0 80 0.8
    endloop
  endfacet
  facet normal -1 0 0
    outer loop
      vertex 0 79.2929 0.2
      vertex 0 79.6464 0.8
      vertex 0 80 0.2
    endloop
  endfacet
  facet normal -1 0 0
    outer loop
      vertex 0 79.2929 0.2
      vertex 0 79.6464 1.2
      vertex 0 79.6464 0.8
    endloop
  endfacet
  facet normal -1 0 0
    outer loop
      vertex 0 40.7071 0.2
      vertex 0 79.2929 0.2
      vertex 0 40.7071 0
    endloop
  endfacet
  facet normal -1 0 0
    outer loop
      vertex 0 79.2929 0.2
      vertex 0 40.7071 0.2
      vertex 0 79.6464 1.2
    endloop
  endfacet
  facet normal -1 0 0
    outer loop
      vertex 0 40.3536 1.2
      vertex 0 40.7071 0.2
      vertex 0 40.3536 0.8
    endloop
  endfacet
  facet normal -1 0 0
    outer loop
      vertex 0 40.7071 0.2
      vertex 0 40.3536 1.2
      vertex 0 79.6464 1.2
    endloop
  endfacet
  facet normal -1 0 0
    outer loop
      vertex 0 0.707106 1
      vertex 0 40 0.2
      vertex 0 40 0
    endloop
  endfacet
  facet normal -1 0 0
    outer loop
      vertex 0 40 0.2
      vertex 0 0.707106 1
      vertex 0 40 0.8
    endloop
  endfacet
  facet normal -1 0 0
    outer loop
      vertex 0 40 0.8
      vertex 0 0.707106 1
      vertex 0 40 1.2
    endloop
  endfacet
  facet normal -1 0 0
    outer loop
      vertex 0 0.353552 0
      vertex 0 0.707106 1
      vertex 0 40 0
    endloop
  endfacet
  facet normal -1 0 0
    outer loop
      vertex 0 0.353552 0.4
      vertex 0 0.707106 1
      vertex 0 0.353552 0
    endloop
  endfacet
  facet normal -1 0 0
    outer loop
      vertex 0 0 1
      vertex 0 0.353552 0.4
      vertex 0 0 0.4
    endloop
  endfacet
  facet normal -1 0 0
    outer loop
      vertex 0 0.353552 0.4
      vertex 0 0 1
      vertex 0 0.707106 1
    endloop
  endfacet
  facet normal -1 0 0
    outer loop
      vertex 0 40 0.2
      vertex 0 40.3536 0.8
      vertex 0 40.7071 0.2
    endloop
  endfacet
  facet normal -1 -0 0
    outer loop
      vertex 0 40.3536 0.8
      vertex 0 40 0.2
      vertex 0 40 0.8
    endloop
  endfacet
  facet normal -1 -0 0
    outer loop
      vertex 0 40 1.2
      vertex 0 0.707106 1
      vertex 0 0.707106 1.2
    endloop
  endfacet
  facet normal -0 0 0
    outer loop
      vertex 0 80 0.8
      vertex 0 80 1.2
      vertex 0 80 0
    endloop
  endfacet
  facet normal -0 0 0
    outer loop
      vertex 0 80 0.2
      vertex 0 80 0.8
      vertex 0 80 0
    endloop
  endfacet
  facet normal 0 1 -0
    outer loop
      vertex 79.6464 80 0.4
      vertex 79.2929 80 1
      vertex 80 80 1
    endloop
  endfacet
  facet normal 0 1 -0
    outer loop
      vertex 40 80 0.2
      vertex 39.6464 80 0.8
      vertex 40 80 0.8
    endloop
  endfacet
  facet normal 0 1 0
    outer loop
      vertex 39.6464 80 0.8
      vertex 39.2929 80 0.2
      vertex 0.353552 80 0.8
    endloop
  endfacet
  facet normal 0 1 -0
    outer loop
      vertex 79.6464 80 0
      vertex 79.2929 80 1
      vertex 79.6464 80 0.4
    endloop
  endfacet
  facet normal 0 1 0
    outer loop
      vertex 79.6464 80 0.4
      vertex 80 80 1
      vertex 80 80 0.4
    endloop
  endfacet
  facet normal 0 1 -0
    outer loop
      vertex 79.2929 80 1
      vertex 40 80 1.2
      vertex 79.2929 80 1.2
    endloop
  endfacet
  facet normal 0 1 0
    outer loop
      vertex 40 80 1.2
      vertex 79.2929 80 1
      vertex 40 80 0.8
    endloop
  endfacet
  facet normal 0 1 -0
    outer loop
      vertex 39.6464 80 0.8
      vertex 0.353552 80 1.2
      vertex 39.6464 80 1.2
    endloop
  endfacet
  facet normal 0 1 0
    outer loop
      vertex 0.353552 80 1.2
      vertex 39.6464 80 0.8
      vertex 0.353552 80 0.8
    endloop
  endfacet
  facet normal 0 1 -0
    outer loop
      vertex 4.76836e-07 80 0.8
      vertex 0 80 1.2
      vertex 4.76836e-07 80 1.2
    endloop
  endfacet
  facet normal 0 1 0
    outer loop
      vertex 79.2929 80 1
      vertex 40 80 0.2
      vertex 40 80 0.8
    endloop
  endfacet
  facet normal 0 1 0
    outer loop
      vertex 39.6464 80 0.8
      vertex 40 80 0.2
      vertex 39.2929 80 0.2
    endloop
  endfacet
  facet normal 0 1 -0
    outer loop
      vertex 0.707106 80 0.2
      vertex 0.353552 80 0.8
      vertex 39.2929 80 0.2
    endloop
  endfacet
  facet normal 0 1 0
    outer loop
      vertex 4.76837e-07 80 0.2
      vertex 0.353552 80 0.8
      vertex 0.707106 80 0.2
    endloop
  endfacet
  facet normal 0 1 0
    outer loop
      vertex 0.353552 80 0.8
      vertex 4.76837e-07 80 0.2
      vertex 4.76836e-07 80 0.8
    endloop
  endfacet
  facet normal 0 1 0
    outer loop
      vertex 4.76837e-07 80 0.2
      vertex 0 80 1.2
      vertex 4.76836e-07 80 0.8
    endloop
  endfacet
  facet normal 0 1 0
    outer loop
      vertex 0 80 0
      vertex 4.76837e-07 80 0.2
      vertex 4.76837e-07 80 0
    endloop
  endfacet
  facet normal 0 1 0
    outer loop
      vertex 4.76837e-07 80 0.2
      vertex 0 80 0
      vertex 0 80 1.2
    endloop
  endfacet
  facet normal 0 1 -0
    outer loop
      vertex 39.2929 80 0
      vertex 0.707106 80 0.2
      vertex 39.2929 80 0.2
    endloop
  endfacet
  facet normal 0 1 0
    outer loop
      vertex 0.707106 80 0.2
      vertex 39.2929 80 0
      vertex 0.707106 80 0
    endloop
  endfacet
  facet normal 0 1 0
    outer loop
      vertex 40 80 0
      vertex 79.2929 80 1
      vertex 79.6464 80 0
    endloop
  endfacet
  facet normal 0 1 0
    outer loop
      vertex 79.2929 80 1
      vertex 40 80 0
      vertex 40 80 0.2
    endloop
  endfacet
  facet normal 0 0 0
    outer loop
      vertex 80 80 0.4
      vertex 80 80 1
      vertex 80 80 1.2
    endloop
  endfacet
  facet normal -0 0 0
    outer loop
      vertex 80 80 0.4
      vertex 80 80 1.2
      vertex 80 80 0
    endloop
  endfacet
  facet normal 0 -1 0
    outer loop
      vertex 39.6464 0 0.8
      vertex 40 0 0.2
      vertex 40 0 0.8
    endloop
  endfacet
  facet normal 0 -1 0
    outer loop
      vertex 39.2929 0 0
      vertex 0.707106 0 1
      vertex 0.353552 0 0
    endloop
  endfacet
  facet normal 0 -1 0
    outer loop
      vertex 0.707106 0 1
      vertex 39.2929 0 0
      vertex 39.2929 0 0.2
    endloop
  endfacet
  facet normal 0 -1 0
    outer loop
      vertex 40 0 0.8
      vertex 40 0 0.2
      vertex 79.6464 0 0.4
    endloop
  endfacet
  facet normal 0 -1 0
    outer loop
      vertex 40 0 0
      vertex 79.6464 0 0.4
      vertex 40 0 0.2
    endloop
  endfacet
  facet normal 0 -1 -0
    outer loop
      vertex 79.6464 0 0.4
      vertex 40 0 0
      vertex 79.6464 0 0
    endloop
  endfacet
  facet normal 0 -1 0
    outer loop
      vertex 0.353552 0 0.4
      vertex 0.707106 0 1
      vertex 0 0 1
    endloop
  endfacet
  facet normal 0 -1 0
    outer loop
      vertex 0.353552 0 0
      vertex 0.707106 0 1
      vertex 0.353552 0 0.4
    endloop
  endfacet
  facet normal 0 -1 0
    outer loop
      vertex 0.353552 0 0.4
      vertex 0 0 1
      vertex 0 0 0.4
    endloop
  endfacet
  facet normal 0 -1 0
    outer loop
      vertex 39.2929 0 0.2
      vertex 0.707106 0 1.2
      vertex 0.707106 0 1
    endloop
  endfacet
  facet normal 0 -1 0
    outer loop
      vertex 0.707106 0 1.2
      vertex 39.2929 0 0.2
      vertex 39.6464 0 1.2
    endloop
  endfacet
  facet normal 0 -1 0
    outer loop
      vertex 40 0 1.2
      vertex 79.2929 0 1
      vertex 79.2929 0 1.2
    endloop
  endfacet
  facet normal 0 -1 0
    outer loop
      vertex 40 0 0.8
      vertex 79.2929 0 1
      vertex 40 0 1.2
    endloop
  endfacet
  facet normal 0 -1 0
    outer loop
      vertex 79.6464 0 0.4
      vertex 79.2929 0 1
      vertex 40 0 0.8
    endloop
  endfacet
  facet normal 0 -1 -0
    outer loop
      vertex 39.6464 0 1.2
      vertex 39.2929 0 0.2
      vertex 39.6464 0 0.8
    endloop
  endfacet
  facet normal 0 -1 0
    outer loop
      vertex 40 0 0.2
      vertex 39.6464 0 0.8
      vertex 39.2929 0 0.2
    endloop
  endfacet
  facet normal 0 -1 0
    outer loop
      vertex 79.2929 0 1
      vertex 79.6464 0 0.4
      vertex 80 0 1
    endloop
  endfacet
  facet normal 0 -1 -0
    outer loop
      vertex 80 0 1
      vertex 79.6464 0 0.4
      vertex 80 0 0.4
    endloop
  endfacet
  facet normal 0 0 0
    outer loop
      vertex 80 0 0
      vertex 80 0 1.2
      vertex 80 0 1
    endloop
  endfacet
  facet normal 0 0 0
    outer loop
      vertex 80 0 0
      vertex 80 0 1
      vertex 80 0 0.4
    endloop
  endfacet
endsolid OpenSCAD_Model
