  0
SECTION
  2
HEADER
  9
$ACADVER
  1
AC1014
  9
$HANDSEED
  5
FFFF
  9
$MEASUREMENT
 70
     1
  0
ENDSEC
  0
SECTION
  2
TABLES
  0
TABLE
  2
VPORT
  5
8
330
0
100
AcDbSymbolTable
 70
     4
  0
VPORT
  5
2E
330
8
100
AcDbSymbolTableRecord
100
AcDbViewportTableRecord
  2
*ACTIVE
 70
     0
 10
0.0
 20
0.0
 11
1.0
 21
1.0
 12
210.0
 22
148.5
 13
0.0
 23
0.0
 14
10.0
 24
10.0
 15
10.0
 25
10.0
 16
0.0
 26
0.0
 36
1.0
 17
0.0
 27
0.0
 37
0.0
 40
341.0
 41
1.24
 42
50.0
 43
0.0
 44
0.0
 50
0.0
 51
0.0
 71
     0
 72
   100
 73
     1
 74
     3
 75
     0
 76
     0
 77
     0
 78
     0
  0
ENDTAB
  0
TABLE
  2
LTYPE
  5
5
330
0
100
AcDbSymbolTable
 70
     1
  0
LTYPE
  5
14
330
5
100
AcDbSymbolTableRecord
100
AcDbLinetypeTableRecord
  2
BYBLOCK
 70
     0
  3

 72
    65
 73
     0
 40
0.0
  0
LTYPE
  5
15
330
5
100
AcDbSymbolTableRecord
100
AcDbLinetypeTableRecord
  2
BYLAYER
 70
     0
  3

 72
    65
 73
     0
 40
0.0
  0
LTYPE
  5
16
330
5
100
AcDbSymbolTableRecord
100
AcDbLinetypeTableRecord
  2
CONTINUOUS
 70
     0
  3
Solid line
 72
    65
 73
     0
 40
0.0
  0
ENDTAB
  0
TABLE
  2
LAYER
  5
2
100
AcDbSymbolTable
 70
2
  0
LAYER
  5
50
100
AcDbSymbolTableRecord
100
AcDbLayerTableRecord
  2
0
 70
0
  6
CONTINUOUS
  0
LAYER
  5
51
100
AcDbSymbolTableRecord
100
AcDbLayerTableRecord
  2
suelo
 70
0
  6
CONTINUOUS
  0
ENDTAB
  0
TABLE
  2
STYLE
  5
3
330
0
100
AcDbSymbolTable
 70
     1
  0
STYLE
  5
11
330
3
100
AcDbSymbolTableRecord
100
AcDbTextStyleTableRecord
  2
STANDARD
 70
     0
 40
0.0
 41
1.0
 50
0.0
 71
     0
 42
2.5
  3
txt
  4

  0
ENDTAB
  0
TABLE
  2
VIEW
  5
6
330
0
100
AcDbSymbolTable
 70
     0
  0
ENDTAB
  0
TABLE
  2
UCS
  5
7
330
0
100
AcDbSymbolTable
 70
     0
  0
ENDTAB
  0
TABLE
  2
APPID
  5
9
330
0
100
AcDbSymbolTable
 70
     2
  0
APPID
  5
12
330
9
100
AcDbSymbolTableRecord
100
AcDbRegAppTableRecord
  2
ACAD
 70
     0
  0
ENDTAB
  0
TABLE
  2
DIMSTYLE
  5
A
330
0
100
AcDbSymbolTable
 70
     1
  0
DIMSTYLE
105
27
330
A
100
AcDbSymbolTableRecord
100
AcDbDimStyleTableRecord
  2
ISO-25
 70
     0
  3

  4

  5

  6

  7

 40
1.0
 41
2.5
 42
0.625
 43
3.75
 44
1.25
 45
0.0
 46
0.0
 47
0.0
 48
0.0
140
2.5
141
2.5
142
0.0
143
0.03937007874016
144
1.0
145
0.0
146
1.0
147
0.625
 71
     0
 72
     0
 73
     0
 74
     0
 75
     0
 76
     0
 77
     1
 78
     8
170
     0
171
     3
172
     1
173
     0
174
     0
175
     0
176
     0
177
     0
178
     0
270
     2
271
     2
272
     2
273
     2
274
     3
340
11
275
     0
280
     0
281
     0
282
     0
283
     0
284
     8
285
     0
286
     0
287
     3
288
     0
  0
ENDTAB
  0
TABLE
  2
BLOCK_RECORD
  5
1
330
0
100
AcDbSymbolTable
 70
     1
  0
BLOCK_RECORD
  5
1F
330
1
100
AcDbSymbolTableRecord
100
AcDbBlockTableRecord
  2
*MODEL_SPACE
  0
BLOCK_RECORD
  5
1B
330
1
100
AcDbSymbolTableRecord
100
AcDbBlockTableRecord
  2
*PAPER_SPACE
  0
ENDTAB
  0
ENDSEC
  0
SECTION
  2
BLOCKS
  0
BLOCK
  5
20
330
1F
100
AcDbEntity
  8
0
100
AcDbBlockBegin
  2
*MODEL_SPACE
 70
     0
 10
0.0
 20
0.0
 30
0.0
  3
*MODEL_SPACE
  1

  0
ENDBLK
  5
21
330
1F
100
AcDbEntity
  8
0
100
AcDbBlockEnd
  0
BLOCK
  5
1C
330
1B
100
AcDbEntity
 67
     1
  8
0
100
AcDbBlockBegin
  2
*PAPER_SPACE
  1

  0
ENDBLK
  5
1D
330
1B
100
AcDbEntity
 67
     1
  8
0
100
AcDbBlockEnd
  0
ENDSEC
  0
SECTION
  2
ENTITIES
  0
LINE
  5
100
100
AcDbEntity
  8
suelo
 62
7
100
AcDbLine
 10
144.756530
 20
7.776250
 30
0.0
 11
145.892600
 21
7.636050
 31
0.0
  0
LINE
  5
101
100
AcDbEntity
  8
suelo
 62
7
100
AcDbLine
 10
145.892600
 20
7.636050
 30
0.0
 11
146.951640
 21
7.467320
 31
0.0
  0
LINE
  5
102
100
AcDbEntity
  8
suelo
 62
7
100
AcDbLine
 10
146.951640
 20
7.467320
 30
0.0
 11
147.934210
 21
7.272240
 31
0.0
  0
LINE
  5
103
100
AcDbEntity
  8
suelo
 62
7
100
AcDbLine
 10
147.934210
 20
7.272240
 30
0.0
 11
148.840880
 21
7.052990
 31
0.0
  0
LINE
  5
104
100
AcDbEntity
  8
suelo
 62
7
100
AcDbLine
 10
148.840880
 20
7.052990
 30
0.0
 11
149.672200
 21
6.811760
 31
0.0
  0
LINE
  5
105
100
AcDbEntity
  8
suelo
 62
7
100
AcDbLine
 10
149.672200
 20
6.811760
 30
0.0
 11
150.428750
 21
6.550710
 31
0.0
  0
LINE
  5
106
100
AcDbEntity
  8
suelo
 62
7
100
AcDbLine
 10
150.428750
 20
6.550710
 30
0.0
 11
151.111080
 21
6.272040
 31
0.0
  0
LINE
  5
107
100
AcDbEntity
  8
suelo
 62
7
100
AcDbLine
 10
151.111080
 20
6.272040
 30
0.0
 11
151.719760
 21
5.977920
 31
0.0
  0
LINE
  5
108
100
AcDbEntity
  8
suelo
 62
7
100
AcDbLine
 10
151.719760
 20
5.977920
 30
0.0
 11
152.255350
 21
5.670530
 31
0.0
  0
LINE
  5
109
100
AcDbEntity
  8
suelo
 62
7
100
AcDbLine
 10
152.255350
 20
5.670530
 30
0.0
 11
152.718410
 21
5.352050
 31
0.0
  0
LINE
  5
10a
100
AcDbEntity
  8
suelo
 62
7
100
AcDbLine
 10
152.718410
 20
5.352050
 30
0.0
 11
153.109510
 21
5.024670
 31
0.0
  0
LINE
  5
10b
100
AcDbEntity
  8
suelo
 62
7
100
AcDbLine
 10
153.109510
 20
5.024670
 30
0.0
 11
153.429200
 21
4.690560
 31
0.0
  0
LINE
  5
10c
100
AcDbEntity
  8
suelo
 62
7
100
AcDbLine
 10
153.429200
 20
4.690560
 30
0.0
 11
153.678060
 21
4.351900
 31
0.0
  0
LINE
  5
10d
100
AcDbEntity
  8
suelo
 62
7
100
AcDbLine
 10
153.678060
 20
4.351900
 30
0.0
 11
153.856640
 21
4.010880
 31
0.0
  0
LINE
  5
10e
100
AcDbEntity
  8
suelo
 62
7
100
AcDbLine
 10
153.856640
 20
4.010880
 30
0.0
 11
153.965500
 21
3.669670
 31
0.0
  0
LINE
  5
10f
100
AcDbEntity
  8
suelo
 62
7
100
AcDbLine
 10
153.965500
 20
3.669670
 30
0.0
 11
154.005200
 21
3.330450
 31
0.0
  0
LINE
  5
110
100
AcDbEntity
  8
suelo
 62
7
100
AcDbLine
 10
154.005200
 20
3.330450
 30
0.0
 11
153.976300
 21
2.995410
 31
0.0
  0
LINE
  5
111
100
AcDbEntity
  8
suelo
 62
7
100
AcDbLine
 10
153.976300
 20
2.995410
 30
0.0
 11
153.879400
 21
2.666730
 31
0.0
  0
LINE
  5
112
100
AcDbEntity
  8
suelo
 62
7
100
AcDbLine
 10
153.879400
 20
2.666730
 30
0.0
 11
153.715040
 21
2.346570
 31
0.0
  0
LINE
  5
113
100
AcDbEntity
  8
suelo
 62
7
100
AcDbLine
 10
153.715040
 20
2.346570
 30
0.0
 11
153.483780
 21
2.037140
 31
0.0
  0
LINE
  5
114
100
AcDbEntity
  8
suelo
 62
7
100
AcDbLine
 10
153.483780
 20
2.037140
 30
0.0
 11
153.186180
 21
1.740590
 31
0.0
  0
LINE
  5
115
100
AcDbEntity
  8
suelo
 62
7
100
AcDbLine
 10
153.186180
 20
1.740590
 30
0.0
 11
152.822800
 21
1.459120
 31
0.0
  0
LINE
  5
116
100
AcDbEntity
  8
suelo
 62
7
100
AcDbLine
 10
152.822800
 20
1.459120
 30
0.0
 11
152.394220
 21
1.194910
 31
0.0
  0
LINE
  5
117
100
AcDbEntity
  8
suelo
 62
7
100
AcDbLine
 10
152.394220
 20
1.194910
 30
0.0
 11
151.900980
 21
0.950140
 31
0.0
  0
LINE
  5
118
100
AcDbEntity
  8
suelo
 62
7
100
AcDbLine
 10
151.900980
 20
0.950140
 30
0.0
 11
151.343660
 21
0.726970
 31
0.0
  0
LINE
  5
119
100
AcDbEntity
  8
suelo
 62
7
100
AcDbLine
 10
151.343660
 20
0.726970
 30
0.0
 11
150.722810
 21
0.527610
 31
0.0
  0
LINE
  5
11a
100
AcDbEntity
  8
suelo
 62
7
100
AcDbLine
 10
150.722810
 20
0.527610
 30
0.0
 11
150.039010
 21
0.354220
 31
0.0
  0
LINE
  5
11b
100
AcDbEntity
  8
suelo
 62
7
100
AcDbLine
 10
150.039010
 20
0.354220
 30
0.0
 11
149.292800
 21
0.208990
 31
0.0
  0
LINE
  5
11c
100
AcDbEntity
  8
suelo
 62
7
100
AcDbLine
 10
149.292800
 20
0.208990
 30
0.0
 11
148.484760
 21
0.094090
 31
0.0
  0
LINE
  5
11d
100
AcDbEntity
  8
suelo
 62
7
100
AcDbLine
 10
148.484760
 20
0.094090
 30
0.0
 11
147.615450
 21
0.011690
 31
0.0
  0
LINE
  5
11e
100
AcDbEntity
  8
suelo
 62
7
100
AcDbLine
 10
147.615450
 20
0.011690
 30
0.0
 11
146.685430
 21
-0.036010
 31
0.0
  0
LINE
  5
11f
100
AcDbEntity
  8
suelo
 62
7
100
AcDbLine
 10
146.685430
 20
-0.036010
 30
0.0
 11
145.695260
 21
-0.046810
 31
0.0
  0
LINE
  5
120
100
AcDbEntity
  8
suelo
 62
7
100
AcDbLine
 10
145.695260
 20
-0.046810
 30
0.0
 11
143.077500
 21
-0.045810
 31
0.0
  0
LINE
  5
121
100
AcDbEntity
  8
suelo
 62
7
100
AcDbLine
 10
143.077500
 20
-0.045810
 30
0.0
 11
140.459740
 21
-0.044810
 31
0.0
  0
LINE
  5
122
100
AcDbEntity
  8
suelo
 62
7
100
AcDbLine
 10
140.459740
 20
-0.044810
 30
0.0
 11
137.841980
 21
-0.043810
 31
0.0
  0
LINE
  5
123
100
AcDbEntity
  8
suelo
 62
7
100
AcDbLine
 10
137.841980
 20
-0.043810
 30
0.0
 11
135.224220
 21
-0.042810
 31
0.0
  0
LINE
  5
124
100
AcDbEntity
  8
suelo
 62
7
100
AcDbLine
 10
135.224220
 20
-0.042810
 30
0.0
 11
132.606470
 21
-0.041810
 31
0.0
  0
LINE
  5
125
100
AcDbEntity
  8
suelo
 62
7
100
AcDbLine
 10
132.606470
 20
-0.041810
 30
0.0
 11
129.988710
 21
-0.040810
 31
0.0
  0
LINE
  5
126
100
AcDbEntity
  8
suelo
 62
7
100
AcDbLine
 10
129.988710
 20
-0.040810
 30
0.0
 11
127.370950
 21
-0.039810
 31
0.0
  0
LINE
  5
127
100
AcDbEntity
  8
suelo
 62
7
100
AcDbLine
 10
127.370950
 20
-0.039810
 30
0.0
 11
124.753190
 21
-0.038810
 31
0.0
  0
LINE
  5
128
100
AcDbEntity
  8
suelo
 62
7
100
AcDbLine
 10
124.753190
 20
-0.038810
 30
0.0
 11
122.135430
 21
-0.037810
 31
0.0
  0
LINE
  5
129
100
AcDbEntity
  8
suelo
 62
7
100
AcDbLine
 10
122.135430
 20
-0.037810
 30
0.0
 11
119.517670
 21
-0.036810
 31
0.0
  0
LINE
  5
12a
100
AcDbEntity
  8
suelo
 62
7
100
AcDbLine
 10
119.517670
 20
-0.036810
 30
0.0
 11
116.899910
 21
-0.035810
 31
0.0
  0
LINE
  5
12b
100
AcDbEntity
  8
suelo
 62
7
100
AcDbLine
 10
116.899910
 20
-0.035810
 30
0.0
 11
114.282150
 21
-0.034810
 31
0.0
  0
LINE
  5
12c
100
AcDbEntity
  8
suelo
 62
7
100
AcDbLine
 10
114.282150
 20
-0.034810
 30
0.0
 11
111.664390
 21
-0.033810
 31
0.0
  0
LINE
  5
12d
100
AcDbEntity
  8
suelo
 62
7
100
AcDbLine
 10
111.664390
 20
-0.033810
 30
0.0
 11
109.046640
 21
-0.032810
 31
0.0
  0
LINE
  5
12e
100
AcDbEntity
  8
suelo
 62
7
100
AcDbLine
 10
109.046640
 20
-0.032810
 30
0.0
 11
106.428880
 21
-0.031810
 31
0.0
  0
LINE
  5
12f
100
AcDbEntity
  8
suelo
 62
7
100
AcDbLine
 10
106.428880
 20
-0.031810
 30
0.0
 11
103.811120
 21
-0.030810
 31
0.0
  0
LINE
  5
130
100
AcDbEntity
  8
suelo
 62
7
100
AcDbLine
 10
103.811120
 20
-0.030810
 30
0.0
 11
101.193360
 21
-0.029810
 31
0.0
  0
LINE
  5
131
100
AcDbEntity
  8
suelo
 62
7
100
AcDbLine
 10
101.193360
 20
-0.029810
 30
0.0
 11
98.575600
 21
-0.028810
 31
0.0
  0
LINE
  5
132
100
AcDbEntity
  8
suelo
 62
7
100
AcDbLine
 10
98.575600
 20
-0.028810
 30
0.0
 11
95.957841
 21
-0.027810
 31
0.0
  0
LINE
  5
133
100
AcDbEntity
  8
suelo
 62
7
100
AcDbLine
 10
95.957841
 20
-0.027810
 30
0.0
 11
93.340083
 21
-0.026810
 31
0.0
  0
LINE
  5
134
100
AcDbEntity
  8
suelo
 62
7
100
AcDbLine
 10
93.340083
 20
-0.026810
 30
0.0
 11
90.722324
 21
-0.025810
 31
0.0
  0
LINE
  5
135
100
AcDbEntity
  8
suelo
 62
7
100
AcDbLine
 10
90.722324
 20
-0.025810
 30
0.0
 11
88.104565
 21
-0.024810
 31
0.0
  0
LINE
  5
136
100
AcDbEntity
  8
suelo
 62
7
100
AcDbLine
 10
88.104565
 20
-0.024810
 30
0.0
 11
85.486806
 21
-0.023810
 31
0.0
  0
LINE
  5
137
100
AcDbEntity
  8
suelo
 62
7
100
AcDbLine
 10
85.486806
 20
-0.023810
 30
0.0
 11
82.869047
 21
-0.022810
 31
0.0
  0
LINE
  5
138
100
AcDbEntity
  8
suelo
 62
7
100
AcDbLine
 10
82.869047
 20
-0.022810
 30
0.0
 11
80.251288
 21
-0.021810
 31
0.0
  0
LINE
  5
139
100
AcDbEntity
  8
suelo
 62
7
100
AcDbLine
 10
80.251288
 20
-0.021810
 30
0.0
 11
77.633529
 21
-0.020810
 31
0.0
  0
LINE
  5
13a
100
AcDbEntity
  8
suelo
 62
7
100
AcDbLine
 10
77.633529
 20
-0.020810
 30
0.0
 11
75.015770
 21
-0.019810
 31
0.0
  0
LINE
  5
13b
100
AcDbEntity
  8
suelo
 62
7
100
AcDbLine
 10
75.015770
 20
-0.019810
 30
0.0
 11
72.398012
 21
-0.018810
 31
0.0
  0
LINE
  5
13c
100
AcDbEntity
  8
suelo
 62
7
100
AcDbLine
 10
72.398012
 20
-0.018810
 30
0.0
 11
69.780253
 21
-0.017810
 31
0.0
  0
LINE
  5
13d
100
AcDbEntity
  8
suelo
 62
7
100
AcDbLine
 10
69.780253
 20
-0.017810
 30
0.0
 11
67.162494
 21
-0.016810
 31
0.0
  0
LINE
  5
13e
100
AcDbEntity
  8
suelo
 62
7
100
AcDbLine
 10
67.162494
 20
-0.016810
 30
0.0
 11
64.544735
 21
-0.015810
 31
0.0
  0
LINE
  5
13f
100
AcDbEntity
  8
suelo
 62
7
100
AcDbLine
 10
64.544735
 20
-0.015810
 30
0.0
 11
61.926976
 21
-0.014810
 31
0.0
  0
LINE
  5
140
100
AcDbEntity
  8
suelo
 62
7
100
AcDbLine
 10
61.926976
 20
-0.014810
 30
0.0
 11
59.857377
 21
0.027390
 31
0.0
  0
LINE
  5
141
100
AcDbEntity
  8
suelo
 62
7
100
AcDbLine
 10
59.857377
 20
0.027390
 30
0.0
 11
57.988783
 21
0.137620
 31
0.0
  0
LINE
  5
142
100
AcDbEntity
  8
suelo
 62
7
100
AcDbLine
 10
57.988783
 20
0.137620
 30
0.0
 11
56.317357
 21
0.311160
 31
0.0
  0
LINE
  5
143
100
AcDbEntity
  8
suelo
 62
7
100
AcDbLine
 10
56.317357
 20
0.311160
 30
0.0
 11
54.839260
 21
0.543340
 31
0.0
  0
LINE
  5
144
100
AcDbEntity
  8
suelo
 62
7
100
AcDbLine
 10
54.839260
 20
0.543340
 30
0.0
 11
53.550656
 21
0.829500
 31
0.0
  0
LINE
  5
145
100
AcDbEntity
  8
suelo
 62
7
100
AcDbLine
 10
53.550656
 20
0.829500
 30
0.0
 11
52.447707
 21
1.164960
 31
0.0
  0
LINE
  5
146
100
AcDbEntity
  8
suelo
 62
7
100
AcDbLine
 10
52.447707
 20
1.164960
 30
0.0
 11
51.526576
 21
1.545050
 31
0.0
  0
LINE
  5
147
100
AcDbEntity
  8
suelo
 62
7
100
AcDbLine
 10
51.526576
 20
1.545050
 30
0.0
 11
50.783425
 21
1.965110
 31
0.0
  0
LINE
  5
148
100
AcDbEntity
  8
suelo
 62
7
100
AcDbLine
 10
50.783425
 20
1.965110
 30
0.0
 11
50.214418
 21
2.420470
 31
0.0
  0
LINE
  5
149
100
AcDbEntity
  8
suelo
 62
7
100
AcDbLine
 10
50.214418
 20
2.420470
 30
0.0
 11
49.815717
 21
2.906440
 31
0.0
  0
LINE
  5
14a
100
AcDbEntity
  8
suelo
 62
7
100
AcDbLine
 10
49.815717
 20
2.906440
 30
0.0
 11
49.583484
 21
3.418370
 31
0.0
  0
LINE
  5
14b
100
AcDbEntity
  8
suelo
 62
7
100
AcDbLine
 10
49.583484
 20
3.418370
 30
0.0
 11
49.513884
 21
3.951580
 31
0.0
  0
LINE
  5
14c
100
AcDbEntity
  8
suelo
 62
7
100
AcDbLine
 10
49.513884
 20
3.951580
 30
0.0
 11
49.603074
 21
4.501410
 31
0.0
  0
LINE
  5
14d
100
AcDbEntity
  8
suelo
 62
7
100
AcDbLine
 10
49.603074
 20
4.501410
 30
0.0
 11
49.847224
 21
5.063180
 31
0.0
  0
LINE
  5
14e
100
AcDbEntity
  8
suelo
 62
7
100
AcDbLine
 10
49.847224
 20
5.063180
 30
0.0
 11
50.242492
 21
5.632230
 31
0.0
  0
LINE
  5
14f
100
AcDbEntity
  8
suelo
 62
7
100
AcDbLine
 10
50.242492
 20
5.632230
 30
0.0
 11
50.785043
 21
6.203880
 31
0.0
  0
LINE
  5
150
100
AcDbEntity
  8
suelo
 62
7
100
AcDbLine
 10
50.785043
 20
6.203880
 30
0.0
 11
51.471038
 21
6.773460
 31
0.0
  0
LINE
  5
151
100
AcDbEntity
  8
suelo
 62
7
100
AcDbLine
 10
51.471038
 20
6.773460
 30
0.0
 11
52.296640
 21
7.336300
 31
0.0
  0
LINE
  5
152
100
AcDbEntity
  8
suelo
 62
7
100
AcDbLine
 10
52.296640
 20
7.336300
 30
0.0
 11
53.258013
 21
7.887740
 31
0.0
  0
LINE
  5
153
100
AcDbEntity
  8
suelo
 62
7
100
AcDbLine
 10
53.258013
 20
7.887740
 30
0.0
 11
54.351318
 21
8.423110
 31
0.0
  0
LINE
  5
154
100
AcDbEntity
  8
suelo
 62
7
100
AcDbLine
 10
54.351318
 20
8.423110
 30
0.0
 11
55.572719
 21
8.937730
 31
0.0
  0
LINE
  5
155
100
AcDbEntity
  8
suelo
 62
7
100
AcDbLine
 10
55.572719
 20
8.937730
 30
0.0
 11
56.918377
 21
9.426930
 31
0.0
  0
LINE
  5
156
100
AcDbEntity
  8
suelo
 62
7
100
AcDbLine
 10
56.918377
 20
9.426930
 30
0.0
 11
58.384456
 21
9.886040
 31
0.0
  0
LINE
  5
157
100
AcDbEntity
  8
suelo
 62
7
100
AcDbLine
 10
58.384456
 20
9.886040
 30
0.0
 11
59.967119
 21
10.310400
 31
0.0
  0
LINE
  5
158
100
AcDbEntity
  8
suelo
 62
7
100
AcDbLine
 10
59.967119
 20
10.310400
 30
0.0
 11
61.662527
 21
10.695330
 31
0.0
  0
LINE
  5
159
100
AcDbEntity
  8
suelo
 62
7
100
AcDbLine
 10
61.662527
 20
10.695330
 30
0.0
 11
63.466845
 21
11.036170
 31
0.0
  0
LINE
  5
15a
100
AcDbEntity
  8
suelo
 62
7
100
AcDbLine
 10
63.466845
 20
11.036170
 30
0.0
 11
65.376233
 21
11.328240
 31
0.0
  0
LINE
  5
15b
100
AcDbEntity
  8
suelo
 62
7
100
AcDbLine
 10
65.376233
 20
11.328240
 30
0.0
 11
67.386856
 21
11.566880
 31
0.0
  0
LINE
  5
15c
100
AcDbEntity
  8
suelo
 62
7
100
AcDbLine
 10
67.386856
 20
11.566880
 30
0.0
 11
69.494876
 21
11.747400
 31
0.0
  0
LINE
  5
15d
100
AcDbEntity
  8
suelo
 62
7
100
AcDbLine
 10
69.494876
 20
11.747400
 30
0.0
 11
71.696454
 21
11.865150
 31
0.0
  0
LINE
  5
15e
100
AcDbEntity
  8
suelo
 62
7
100
AcDbLine
 10
71.696454
 20
11.865150
 30
0.0
 11
73.987755
 21
11.915450
 31
0.0
  0
LINE
  5
15f
100
AcDbEntity
  8
suelo
 62
7
100
AcDbLine
 10
73.987755
 20
11.915450
 30
0.0
 11
76.364941
 21
11.893650
 31
0.0
  0
LINE
  5
160
100
AcDbEntity
  8
suelo
 62
7
100
AcDbLine
 10
76.364941
 20
11.893650
 30
0.0
 11
77.447640
 21
11.876950
 31
0.0
  0
LINE
  5
161
100
AcDbEntity
  8
suelo
 62
7
100
AcDbLine
 10
77.447640
 20
11.876950
 30
0.0
 11
78.472527
 21
11.860850
 31
0.0
  0
LINE
  5
162
100
AcDbEntity
  8
suelo
 62
7
100
AcDbLine
 10
78.472527
 20
11.860850
 30
0.0
 11
79.452187
 21
11.844450
 31
0.0
  0
LINE
  5
163
100
AcDbEntity
  8
suelo
 62
7
100
AcDbLine
 10
79.452187
 20
11.844450
 30
0.0
 11
80.399203
 21
11.827050
 31
0.0
  0
LINE
  5
164
100
AcDbEntity
  8
suelo
 62
7
100
AcDbLine
 10
80.399203
 20
11.827050
 30
0.0
 11
81.326162
 21
11.807850
 31
0.0
  0
LINE
  5
165
100
AcDbEntity
  8
suelo
 62
7
100
AcDbLine
 10
81.326162
 20
11.807850
 30
0.0
 11
82.245647
 21
11.786050
 31
0.0
  0
LINE
  5
166
100
AcDbEntity
  8
suelo
 62
7
100
AcDbLine
 10
82.245647
 20
11.786050
 30
0.0
 11
83.170243
 21
11.760950
 31
0.0
  0
LINE
  5
167
100
AcDbEntity
  8
suelo
 62
7
100
AcDbLine
 10
83.170243
 20
11.760950
 30
0.0
 11
84.112535
 21
11.731750
 31
0.0
  0
LINE
  5
168
100
AcDbEntity
  8
suelo
 62
7
100
AcDbLine
 10
84.112535
 20
11.731750
 30
0.0
 11
85.085108
 21
11.697550
 31
0.0
  0
LINE
  5
169
100
AcDbEntity
  8
suelo
 62
7
100
AcDbLine
 10
85.085108
 20
11.697550
 30
0.0
 11
86.100546
 21
11.657650
 31
0.0
  0
LINE
  5
16a
100
AcDbEntity
  8
suelo
 62
7
100
AcDbLine
 10
86.100546
 20
11.657650
 30
0.0
 11
87.171433
 21
11.611350
 31
0.0
  0
LINE
  5
16b
100
AcDbEntity
  8
suelo
 62
7
100
AcDbLine
 10
87.171433
 20
11.611350
 30
0.0
 11
88.310356
 21
11.557750
 31
0.0
  0
LINE
  5
16c
100
AcDbEntity
  8
suelo
 62
7
100
AcDbLine
 10
88.310356
 20
11.557750
 30
0.0
 11
89.529898
 21
11.496150
 31
0.0
  0
LINE
  5
16d
100
AcDbEntity
  8
suelo
 62
7
100
AcDbLine
 10
89.529898
 20
11.496150
 30
0.0
 11
90.842643
 21
11.425750
 31
0.0
  0
LINE
  5
16e
100
AcDbEntity
  8
suelo
 62
7
100
AcDbLine
 10
90.842643
 20
11.425750
 30
0.0
 11
92.261178
 21
11.345750
 31
0.0
  0
LINE
  5
16f
100
AcDbEntity
  8
suelo
 62
7
100
AcDbLine
 10
92.261178
 20
11.345750
 30
0.0
 11
93.798086
 21
11.255350
 31
0.0
  0
LINE
  5
170
100
AcDbEntity
  8
suelo
 62
7
100
AcDbLine
 10
93.798086
 20
11.255350
 30
0.0
 11
95.465951
 21
11.153780
 31
0.0
  0
LINE
  5
171
100
AcDbEntity
  8
suelo
 62
7
100
AcDbLine
 10
95.465951
 20
11.153780
 30
0.0
 11
97.277360
 21
11.040280
 31
0.0
  0
LINE
  5
172
100
AcDbEntity
  8
suelo
 62
7
100
AcDbLine
 10
97.277360
 20
11.040280
 30
0.0
 11
99.244896
 21
10.914060
 31
0.0
  0
LINE
  5
173
100
AcDbEntity
  8
suelo
 62
7
100
AcDbLine
 10
99.244896
 20
10.914060
 30
0.0
 11
101.381149
 21
10.774350
 31
0.0
  0
LINE
  5
174
100
AcDbEntity
  8
suelo
 62
7
100
AcDbLine
 10
101.381149
 20
10.774350
 30
0.0
 11
103.698689
 21
10.620370
 31
0.0
  0
LINE
  5
175
100
AcDbEntity
  8
suelo
 62
7
100
AcDbLine
 10
103.698689
 20
10.620370
 30
0.0
 11
106.210119
 21
10.451330
 31
0.0
  0
LINE
  5
176
100
AcDbEntity
  8
suelo
 62
7
100
AcDbLine
 10
106.210119
 20
10.451330
 30
0.0
 11
108.928009
 21
10.266460
 31
0.0
  0
LINE
  5
177
100
AcDbEntity
  8
suelo
 62
7
100
AcDbLine
 10
108.928009
 20
10.266460
 30
0.0
 11
111.864949
 21
10.064980
 31
0.0
  0
LINE
  5
178
100
AcDbEntity
  8
suelo
 62
7
100
AcDbLine
 10
111.864949
 20
10.064980
 30
0.0
 11
115.033529
 21
9.846100
 31
0.0
  0
LINE
  5
179
100
AcDbEntity
  8
suelo
 62
7
100
AcDbLine
 10
115.033529
 20
9.846100
 30
0.0
 11
118.446329
 21
9.609060
 31
0.0
  0
LINE
  5
17a
100
AcDbEntity
  8
suelo
 62
7
100
AcDbLine
 10
118.446329
 20
9.609060
 30
0.0
 11
122.115929
 21
9.353060
 31
0.0
  0
LINE
  5
17b
100
AcDbEntity
  8
suelo
 62
7
100
AcDbLine
 10
122.115929
 20
9.353060
 30
0.0
 11
126.054929
 21
9.077330
 31
0.0
  0
LINE
  5
17c
100
AcDbEntity
  8
suelo
 62
7
100
AcDbLine
 10
126.054929
 20
9.077330
 30
0.0
 11
130.275889
 21
8.781080
 31
0.0
  0
LINE
  5
17d
100
AcDbEntity
  8
suelo
 62
7
100
AcDbLine
 10
130.275889
 20
8.781080
 30
0.0
 11
134.791419
 21
8.463550
 31
0.0
  0
LINE
  5
17e
100
AcDbEntity
  8
suelo
 62
7
100
AcDbLine
 10
134.791419
 20
8.463550
 30
0.0
 11
139.614089
 21
8.123950
 31
0.0
  0
LINE
  5
17f
100
AcDbEntity
  8
suelo
 62
7
100
AcDbLine
 10
139.614089
 20
8.123950
 30
0.0
 11
144.756530
 21
7.776250
 31
0.0
  0
ENDSEC
  0
SECTION
  2
OBJECTS
  0
DICTIONARY
  5
C
330
0
100
AcDbDictionary
  3
ACAD_GROUP
350
D
  3
ACAD_MLINESTYLE
350
17
  0
DICTIONARY
  5
D
330
C
100
AcDbDictionary
  0
DICTIONARY
  5
1A
330
C
100
AcDbDictionary
  0
DICTIONARY
  5
17
330
C
100
AcDbDictionary
  3
STANDARD
350
18
  0
DICTIONARY
  5
19
330
C
100
AcDbDictionary
  0
ENDSEC
  0
EOF
